<?xml version="1.0" standalone="yes"?>

<svg version="1.1" viewBox="0.0 0.0 142.0 141.0" fill="none" stroke="none" stroke-linecap="square" stroke-miterlimit="10" xmlns="http://www.w3.org/2000/svg" xmlns:xlink="http://www.w3.org/1999/xlink"><clipPath id="p.0"><path d="m0 0l142.0 0l0 141.0l-142.0 0l0 -141.0z" clip-rule="nonzero"></path></clipPath><g clip-path="url(#p.0)"><path fill="#000000" fill-opacity="0.0" d="m0 0l142.26509 0l0 141.28346l-142.26509 0z" fill-rule="nonzero"></path><path fill="#000000" d="m174.5433 70.64042l0 0c0 -36.920452 30.303635 -66.850395 67.68504 -66.850395l0 0c17.951187 0 35.16713 7.0431457 47.86055 19.580027c12.69342 12.5368805 19.824493 29.540539 19.824493 47.270367l0 0c0 36.92045 -30.30362 66.850395 -67.68504 66.850395l0 0c-37.38141 0 -67.68504 -29.929947 -67.68504 -66.850395z" fill-rule="nonzero"></path><path stroke="#000000" stroke-width="2.0" stroke-linejoin="round" stroke-linecap="butt" d="m174.5433 70.64042l0 0c0 -36.920452 30.303635 -66.850395 67.68504 -66.850395l0 0c17.951187 0 35.16713 7.0431457 47.86055 19.580027c12.69342 12.5368805 19.824493 29.540539 19.824493 47.270367l0 0c0 36.92045 -30.30362 66.850395 -67.68504 66.850395l0 0c-37.38141 0 -67.68504 -29.929947 -67.68504 -66.850395z" fill-rule="nonzero"></path><path fill="#000000" d="m180.73228 70.64042l0 0c0 -32.763096 27.53273 -59.322834 61.496063 -59.322834l0 0c16.309769 0 31.951523 6.2500668 43.4843 17.375257c11.532745 11.125189 18.01178 26.214186 18.01178 41.94758l0 0c0 32.7631 -27.532745 59.322838 -61.49608 59.322838l0 0c-33.963333 0 -61.496063 -26.559738 -61.496063 -59.322838z" fill-rule="nonzero"></path><path stroke="#ffffff" stroke-width="2.0" stroke-linejoin="round" stroke-linecap="butt" d="m180.73228 70.64042l0 0c0 -32.763096 27.53273 -59.322834 61.496063 -59.322834l0 0c16.309769 0 31.951523 6.2500668 43.4843 17.375257c11.532745 11.125189 18.01178 26.214186 18.01178 41.94758l0 0c0 32.7631 -27.532745 59.322838 -61.49608 59.322838l0 0c-33.963333 0 -61.496063 -26.559738 -61.496063 -59.322838z" fill-rule="nonzero"></path><path fill="#ffffff" d="m223.3453 64.740814l37.76538 0l0 42.128677l-37.76538 0z" fill-rule="nonzero"></path><path stroke="#000000" stroke-width="2.0" stroke-linejoin="round" stroke-linecap="butt" d="m223.3453 64.740814l37.76538 0l0 42.128677l-37.76538 0z" fill-rule="nonzero"></path><path fill="#ffffff" d="m207.4569 64.74147l34.771652 -30.330708l34.771667 30.330708z" fill-rule="nonzero"></path><path stroke="#000000" stroke-width="2.0" stroke-linejoin="round" stroke-linecap="butt" d="m207.4569 64.74147l34.771652 -30.330708l34.771667 30.330708z" fill-rule="nonzero"></path><path fill="#000000" d="m3.4475067 70.64304l0 0c0 -36.920452 30.303627 -66.850395 67.685036 -66.850395l0 0c17.951187 0 35.167145 7.043146 47.86055 19.580027c12.693413 12.5368805 19.824486 29.540539 19.824486 47.270367l0 0c0 36.92045 -30.30362 66.850395 -67.685036 66.850395l0 0c-37.381413 0 -67.685036 -29.929947 -67.685036 -66.850395z" fill-rule="nonzero"></path><path stroke="#000000" stroke-width="2.0" stroke-linejoin="round" stroke-linecap="butt" d="m3.4475067 70.64304l0 0c0 -36.920452 30.303627 -66.850395 67.685036 -66.850395l0 0c17.951187 0 35.167145 7.043146 47.86055 19.580027c12.693413 12.5368805 19.824486 29.540539 19.824486 47.270367l0 0c0 36.92045 -30.30362 66.850395 -67.685036 66.850395l0 0c-37.381413 0 -67.685036 -29.929947 -67.685036 -66.850395z" fill-rule="nonzero"></path><path fill="#000000" d="m9.636483 70.64304l0 0c0 -32.763096 27.532726 -59.322834 61.496063 -59.322834l0 0c16.309769 0 31.951538 6.2500668 43.484283 17.375257c11.532753 11.125189 18.011787 26.214186 18.011787 41.94758l0 0c0 32.7631 -27.53273 59.322838 -61.49607 59.322838l0 0c-33.963337 0 -61.496063 -26.559738 -61.496063 -59.322838z" fill-rule="nonzero"></path><path stroke="#ffffff" stroke-width="2.0" stroke-linejoin="round" stroke-linecap="butt" d="m9.636483 70.64304l0 0c0 -32.763096 27.532726 -59.322834 61.496063 -59.322834l0 0c16.309769 0 31.951538 6.2500668 43.484283 17.375257c11.532753 11.125189 18.011787 26.214186 18.011787 41.94758l0 0c0 32.7631 -27.53273 59.322838 -61.49607 59.322838l0 0c-33.963337 0 -61.496063 -26.559738 -61.496063 -59.322838z" fill-rule="nonzero"></path><path fill="#ffffff" d="m35.857346 59.353447l23.9856 0l0 -23.985603l22.579205 0l0 23.985603l23.985596 0l0 22.5792l-23.985596 0l0 23.985596l-22.579205 0l0 -23.985596l-23.9856 0z" fill-rule="nonzero"></path><path stroke="#000000" stroke-width="2.0" stroke-linejoin="round" stroke-linecap="butt" d="m35.857346 59.353447l23.9856 0l0 -23.985603l22.579205 0l0 23.985603l23.985596 0l0 22.5792l-23.985596 0l0 23.985596l-22.579205 0l0 -23.985596l-23.9856 0z" fill-rule="nonzero"></path><path fill="#000000" d="m334.44882 -106.35827l0 0c0 -36.92045 30.30362 -66.850395 67.68503 -66.850395l0 0c17.951202 0 35.167145 7.043152 47.860565 19.580032c12.69339 12.5368805 19.824493 29.540535 19.824493 47.270363l0 0c0 36.92045 -30.30362 66.85039 -67.68506 66.85039l0 0c-37.38141 0 -67.68503 -29.929943 -67.68503 -66.85039z" fill-rule="nonzero"></path><path stroke="#000000" stroke-width="2.0" stroke-linejoin="round" stroke-linecap="butt" d="m334.44882 -106.35827l0 0c0 -36.92045 30.30362 -66.850395 67.68503 -66.850395l0 0c17.951202 0 35.167145 7.043152 47.860565 19.580032c12.69339 12.5368805 19.824493 29.540535 19.824493 47.270363l0 0c0 36.92045 -30.30362 66.85039 -67.68506 66.85039l0 0c-37.38141 0 -67.68503 -29.929943 -67.68503 -66.85039z" fill-rule="nonzero"></path><path fill="#000000" d="m340.6378 -106.35827l0 0c0 -32.7631 27.532745 -59.322838 61.496063 -59.322838l0 0c16.309784 0 31.951538 6.2500763 43.484283 17.37526c11.532745 11.125198 18.01178 26.214188 18.01178 41.94758l0 0c0 32.7631 -27.532715 59.32284 -61.496063 59.32284l0 0c-33.963318 0 -61.496063 -26.559742 -61.496063 -59.32284z" fill-rule="nonzero"></path><path stroke="#ffffff" stroke-width="2.0" stroke-linejoin="round" stroke-linecap="butt" d="m340.6378 -106.35827l0 0c0 -32.7631 27.532745 -59.322838 61.496063 -59.322838l0 0c16.309784 0 31.951538 6.2500763 43.484283 17.37526c11.532745 11.125198 18.01178 26.214188 18.01178 41.94758l0 0c0 32.7631 -27.532715 59.32284 -61.496063 59.32284l0 0c-33.963318 0 -61.496063 -26.559742 -61.496063 -59.32284z" fill-rule="nonzero"></path><path fill="#ffffff" d="m378.5433 -77.03544l0 0c1.8612366 0 3.3700867 -1.5088348 3.3700867 -3.370079l-3.3700867 0c0.93063354 0 1.6850281 -0.7544174 1.6850281 -1.6850357c0 -0.9306183 -0.75439453 -1.6850433 -1.6850281 -1.6850433l3.3700867 0l0 -48.535423l0 0c0 -1.8612518 1.5088196 -3.3700867 3.3700867 -3.3700867l40.44095 0c1.8612366 0 3.3700562 1.5088348 3.3700562 3.3700867c0 1.8612366 -1.5088196 3.3700714 -3.3700562 3.3700714l-3.3700867 0l0 48.53543c0 1.8612442 -1.5088501 3.370079 -3.3700867 3.370079zm10.1102295 -55.27558l0 0c0 1.8612366 -1.5088196 3.3700714 -3.3700562 3.3700714c-0.93063354 0 -1.6850586 -0.7544098 -1.6850586 -1.6850281c0 -0.93063354 0.75442505 -1.6850433 1.6850586 -1.6850433z" fill-rule="nonzero"></path><path fill="#cbcbcb" d="m388.65353 -132.31102l0 0c0 1.8612366 -1.5088196 3.3700714 -3.3700562 3.3700714c-0.93063354 0 -1.6850586 -0.7544098 -1.6850586 -1.6850281c0 -0.93063354 0.75442505 -1.6850433 1.6850586 -1.6850433zm-6.740143 51.905502c0 1.8612442 -1.5088501 3.370079 -3.3700867 3.370079c-1.8612366 0 -3.3700867 -1.5088348 -3.3700867 -3.370079c0 -1.8612366 1.5088501 -3.370079 3.3700867 -3.370079l0 0c0.93063354 0 1.6850281 0.75442505 1.6850281 1.6850433c0 0.9306183 -0.75439453 1.6850357 -1.6850281 1.6850357z" fill-rule="nonzero"></path><path fill="#000000" fill-opacity="0.0" d="m381.9134 -83.7756l0 -48.535423l0 0c0 -1.8612518 1.5088196 -3.3700867 3.3700867 -3.3700867l40.44095 0c1.8612366 0 3.3700562 1.5088348 3.3700562 3.3700867c0 1.8612366 -1.5088196 3.3700714 -3.3700562 3.3700714l-3.3700867 0l0 48.53543c0 1.8612442 -1.5088501 3.370079 -3.3700867 3.370079l-40.44095 0l0 0c-1.8612366 0 -3.3700867 -1.5088348 -3.3700867 -3.370079c0 -1.8612366 1.5088501 -3.370079 3.3700867 -3.370079zm3.3700867 -51.90551l0 0c1.8612366 0 3.3700562 1.5088348 3.3700562 3.3700867c0 1.8612366 -1.5088196 3.3700714 -3.3700562 3.3700714c-0.93063354 0 -1.6850586 -0.7544098 -1.6850586 -1.6850281c0 -0.93063354 0.75442505 -1.6850433 1.6850586 -1.6850433l3.3700562 0m33.700806 3.3700714l-37.07086 0m-6.7401733 45.16535l0 0c0.93063354 0 1.6850281 0.75442505 1.6850281 1.6850433c0 0.9306183 -0.75439453 1.6850357 -1.6850281 1.6850357l3.3700867 0m-3.3700867 3.370079l0 0c1.8612366 0 3.3700867 -1.5088348 3.3700867 -3.370079l0 -3.370079" fill-rule="nonzero"></path><path stroke="#000000" stroke-width="2.0" stroke-linejoin="round" stroke-linecap="butt" d="m381.9134 -83.7756l0 -48.535423l0 0c0 -1.8612518 1.5088196 -3.3700867 3.3700867 -3.3700867l40.44095 0c1.8612366 0 3.3700562 1.5088348 3.3700562 3.3700867c0 1.8612366 -1.5088196 3.3700714 -3.3700562 3.3700714l-3.3700867 0l0 48.53543c0 1.8612442 -1.5088501 3.370079 -3.3700867 3.370079l-40.44095 0l0 0c-1.8612366 0 -3.3700867 -1.5088348 -3.3700867 -3.370079c0 -1.8612366 1.5088501 -3.370079 3.3700867 -3.370079zm3.3700867 -51.90551l0 0c1.8612366 0 3.3700562 1.5088348 3.3700562 3.3700867c0 1.8612366 -1.5088196 3.3700714 -3.3700562 3.3700714c-0.93063354 0 -1.6850586 -0.7544098 -1.6850586 -1.6850281c0 -0.93063354 0.75442505 -1.6850433 1.6850586 -1.6850433l3.3700562 0m33.700806 3.3700714l-37.07086 0m-6.7401733 45.16535l0 0c0.93063354 0 1.6850281 0.75442505 1.6850281 1.6850433c0 0.9306183 -0.75439453 1.6850357 -1.6850281 1.6850357l3.3700867 0m-3.3700867 3.370079l0 0c1.8612366 0 3.3700867 -1.5088348 3.3700867 -3.370079l0 -3.370079" fill-rule="nonzero"></path><path fill="#000000" d="m-223.479 59.729656l0 0c0 -36.920452 30.30362 -66.85039 67.68504 -66.85039l0 0c17.951187 0 35.167145 7.0431457 47.86055 19.580027c12.693405 12.5368805 19.824486 29.54054 19.824486 47.270363l0 0c0 36.920452 -30.30362 66.85039 -67.685036 66.85039l0 0c-37.381424 0 -67.68504 -29.92994 -67.68504 -66.85039z" fill-rule="nonzero"></path><path stroke="#000000" stroke-width="2.0" stroke-linejoin="round" stroke-linecap="butt" d="m-223.479 59.729656l0 0c0 -36.920452 30.30362 -66.85039 67.68504 -66.85039l0 0c17.951187 0 35.167145 7.0431457 47.86055 19.580027c12.693405 12.5368805 19.824486 29.54054 19.824486 47.270363l0 0c0 36.920452 -30.30362 66.85039 -67.685036 66.85039l0 0c-37.381424 0 -67.68504 -29.92994 -67.68504 -66.85039z" fill-rule="nonzero"></path><path fill="#000000" d="m-217.29002 59.72966l0 0c0 -32.7631 27.53273 -59.322834 61.496063 -59.322834l0 0c16.309769 0 31.95153 6.2500668 43.484283 17.375257c11.532745 11.125189 18.01178 26.214184 18.01178 41.94758l0 0c0 32.7631 -27.532722 59.322838 -61.496063 59.322838l0 0c-33.963333 0 -61.496063 -26.559738 -61.496063 -59.322838z" fill-rule="nonzero"></path><path stroke="#ffffff" stroke-width="2.0" stroke-linejoin="round" stroke-linecap="butt" d="m-217.29002 59.72966l0 0c0 -32.7631 27.53273 -59.322834 61.496063 -59.322834l0 0c16.309769 0 31.95153 6.2500668 43.484283 17.375257c11.532745 11.125189 18.01178 26.214184 18.01178 41.94758l0 0c0 32.7631 -27.532722 59.322838 -61.496063 59.322838l0 0c-33.963333 0 -61.496063 -26.559738 -61.496063 -59.322838z" fill-rule="nonzero"></path><path fill="#ffffff" d="m-194.58136 59.72966l38.7874 -16.551182l38.7874 16.551182l-38.7874 16.551178z" fill-rule="nonzero"></path><path stroke="#000000" stroke-width="2.0" stroke-linejoin="round" stroke-linecap="butt" d="m-194.58136 59.72966l38.7874 -16.551182l38.7874 16.551182l-38.7874 16.551178z" fill-rule="nonzero"></path><path fill="#000000" d="m-158.15617 59.72966l0 0c0 -1.0436897 1.0576019 -1.8897667 2.3622131 -1.8897667l0 0c1.3046112 0 2.3621979 0.84607697 2.3621979 1.8897667l0 0c0 1.0436859 -1.0575867 1.8897629 -2.3621979 1.8897629l0 0c-1.3046112 0 -2.3622131 -0.84607697 -2.3622131 -1.8897629z" fill-rule="nonzero"></path><path stroke="#000000" stroke-width="2.0" stroke-linejoin="round" stroke-linecap="butt" d="m-158.15617 59.72966l0 0c0 -1.0436897 1.0576019 -1.8897667 2.3622131 -1.8897667l0 0c1.3046112 0 2.3621979 0.84607697 2.3621979 1.8897667l0 0c0 1.0436859 -1.0575867 1.8897629 -2.3621979 1.8897629l0 0c-1.3046112 0 -2.3622131 -0.84607697 -2.3622131 -1.8897629z" fill-rule="nonzero"></path><path fill="#000000" fill-opacity="0.0" d="m-153.43176 59.72966l15.370087 8.818893" fill-rule="nonzero"></path><path stroke="#000000" stroke-width="2.0" stroke-linejoin="round" stroke-linecap="butt" d="m-153.43176 59.72966l15.370087 8.818893" fill-rule="nonzero"></path><path fill="#000000" d="m654.2598 -106.35827l0 0c0 -36.92045 30.30365 -66.850395 67.68506 -66.850395l0 0c17.951172 0 35.167114 7.043152 47.860535 19.580032c12.69342 12.5368805 19.824524 29.540535 19.824524 47.270363l0 0c0 36.92045 -30.30365 66.85039 -67.68506 66.85039l0 0c-37.38141 0 -67.68506 -29.929943 -67.68506 -66.85039z" fill-rule="nonzero"></path><path stroke="#000000" stroke-width="2.0" stroke-linejoin="round" stroke-linecap="butt" d="m654.2598 -106.35827l0 0c0 -36.92045 30.30365 -66.850395 67.68506 -66.850395l0 0c17.951172 0 35.167114 7.043152 47.860535 19.580032c12.69342 12.5368805 19.824524 29.540535 19.824524 47.270363l0 0c0 36.92045 -30.30365 66.85039 -67.68506 66.85039l0 0c-37.38141 0 -67.68506 -29.929943 -67.68506 -66.85039z" fill-rule="nonzero"></path><path fill="#000000" d="m660.4488 -106.35827l0 0c0 -32.7631 27.532776 -59.322838 61.496094 -59.322838l0 0c16.309753 0 31.951538 6.2500763 43.484253 17.37526c11.532776 11.125198 18.01178 26.214188 18.01178 41.94758l0 0c0 32.7631 -27.532715 59.32284 -61.496033 59.32284l0 0c-33.963318 0 -61.496094 -26.559742 -61.496094 -59.32284z" fill-rule="nonzero"></path><path stroke="#ffffff" stroke-width="2.0" stroke-linejoin="round" stroke-linecap="butt" d="m660.4488 -106.35827l0 0c0 -32.7631 27.532776 -59.322838 61.496094 -59.322838l0 0c16.309753 0 31.951538 6.2500763 43.484253 17.37526c11.532776 11.125198 18.01178 26.214188 18.01178 41.94758l0 0c0 32.7631 -27.532715 59.32284 -61.496033 59.32284l0 0c-33.963318 0 -61.496094 -26.559742 -61.496094 -59.32284z" fill-rule="nonzero"></path><path fill="#ffffff" d="m705.0963 -126.25766l0 0c-0.33563232 -2.1365662 0.76623535 -4.251648 2.8380127 -5.447708c2.0717163 -1.1960754 4.750061 -1.2633972 6.8984375 -0.17337036l0 0c0.76104736 -1.2422943 2.1539307 -2.100006 3.7573242 -2.3137054c1.6034546 -0.21369934 3.229126 0.24171448 4.385254 1.2285004l0 0c0.6482544 -1.1263428 1.9212036 -1.8831024 3.3670654 -2.0017395c1.4458618 -0.118637085 2.8600464 0.41763306 3.7407227 1.4185181l0 0c1.1712036 -1.1939087 3.034668 -1.6965942 4.7840576 -1.2905426c1.7493286 0.40605164 3.0703735 1.6479187 3.3915405 3.1882477l0 0c1.4349365 0.33906555 2.630249 1.2010498 3.2770386 2.3632202c0.64678955 1.1621857 0.6816406 2.5105438 0.09552002 3.6967163l0 0c1.4130249 1.5931702 1.7435913 3.7160416 0.86828613 5.5764008c-0.8753052 1.8603668 -2.8248901 3.1787186 -5.121277 3.4630737c-0.016174316 1.7460175 -1.121521 3.3481445 -2.8900146 4.188843c-1.7684326 0.8407059 -3.9238892 0.7887039 -5.635498 -0.13594818c-0.72906494 2.091156 -2.781067 3.6298065 -5.2695312 3.9512024c-2.4884644 0.32139587 -4.967285 -0.6320801 -6.3654785 -2.4485016c-1.7138672 0.8953171 -3.7703857 1.1532288 -5.7056274 0.7155609c-1.9352417 -0.43767548 -3.5861816 -1.5340652 -4.5803833 -3.0418472l0 0c-1.7514038 0.17754364 -3.4447021 -0.60852814 -4.239624 -1.9680939c-0.7949219 -1.3595581 -0.52215576 -3.0031967 0.6828613 -4.115181l0 0c-1.5622559 -0.7965698 -2.359436 -2.3772278 -1.975769 -3.9177246c0.38360596 -1.5404968 1.861084 -2.6917496 3.6619873 -2.853424z" fill-rule="nonzero"></path><path fill="#000000" fill-opacity="0.0" d="m703.3754 -119.40417l0 0c0.73724365 0.3759079 1.5889282 0.54642487 2.4407349 0.48866272m1.1156616 5.5947495c0.36627197 -0.037132263 0.72528076 -0.11576843 1.06781 -0.23387146m9.217712 2.5600586c-0.2576294 -0.33468628 -0.47332764 -0.69233704 -0.6434326 -1.0668411m12.27887 -0.43592072l0 0c0.13293457 -0.38124847 0.21905518 -0.77363586 0.25689697 -1.1706161m8.268311 -2.8821335c0.017211914 -1.858902 -1.2015381 -3.560936 -3.1328125 -4.3750153m7.385742 -4.664261c-0.31274414 0.6329956 -0.79022217 1.1945114 -1.3949585 1.6405334m-1.977356 -7.700638l0 0c0.053344727 0.25561523 0.07800293 0.5150757 0.07366943 0.7747803m-8.249084 -2.672409l0 0c-0.2921753 0.2978363 -0.53289795 0.63064575 -0.7145996 0.9880829m-6.3932495 -0.40499878l0 0c-0.15570068 0.2705078 -0.27197266 0.5567627 -0.34613037 0.85214233m-7.79657 0.23309326l0 0c0.45458984 0.2306366 0.8751831 0.508255 1.2524414 0.8267212m-10.98877 4.794388l0 0c0.04626465 0.29447937 0.11932373 0.5853195 0.2185669 0.869812" fill-rule="nonzero"></path><path stroke="#000000" stroke-width="2.0" stroke-linejoin="round" stroke-linecap="butt" d="m705.0963 -126.25766l0 0c-0.33563232 -2.1365662 0.76623535 -4.251648 2.8380127 -5.447708c2.0717163 -1.1960754 4.750061 -1.2633972 6.8984375 -0.17337036l0 0c0.76104736 -1.2422943 2.1539307 -2.100006 3.7573242 -2.3137054c1.6034546 -0.21369934 3.229126 0.24171448 4.385254 1.2285004l0 0c0.6482544 -1.1263428 1.9212036 -1.8831024 3.3670654 -2.0017395c1.4458618 -0.118637085 2.8600464 0.41763306 3.7407227 1.4185181l0 0c1.1712036 -1.1939087 3.034668 -1.6965942 4.7840576 -1.2905426c1.7493286 0.40605164 3.0703735 1.6479187 3.3915405 3.1882477l0 0c1.4349365 0.33906555 2.630249 1.2010498 3.2770386 2.3632202c0.64678955 1.1621857 0.6816406 2.5105438 0.09552002 3.6967163l0 0c1.4130249 1.5931702 1.7435913 3.7160416 0.86828613 5.5764008c-0.8753052 1.8603668 -2.8248901 3.1787186 -5.121277 3.4630737c-0.016174316 1.7460175 -1.121521 3.3481445 -2.8900146 4.188843c-1.7684326 0.8407059 -3.9238892 0.7887039 -5.635498 -0.13594818c-0.72906494 2.091156 -2.781067 3.6298065 -5.2695312 3.9512024c-2.4884644 0.32139587 -4.967285 -0.6320801 -6.3654785 -2.4485016c-1.7138672 0.8953171 -3.7703857 1.1532288 -5.7056274 0.7155609c-1.9352417 -0.43767548 -3.5861816 -1.5340652 -4.5803833 -3.0418472l0 0c-1.7514038 0.17754364 -3.4447021 -0.60852814 -4.239624 -1.9680939c-0.7949219 -1.3595581 -0.52215576 -3.0031967 0.6828613 -4.115181l0 0c-1.5622559 -0.7965698 -2.359436 -2.3772278 -1.975769 -3.9177246c0.38360596 -1.5404968 1.861084 -2.6917496 3.6619873 -2.853424z" fill-rule="nonzero"></path><path stroke="#000000" stroke-width="2.0" stroke-linejoin="round" stroke-linecap="butt" d="m703.3754 -119.40417l0 0c0.73724365 0.3759079 1.5889282 0.54642487 2.4407349 0.48866272m1.1156616 5.5947495c0.36627197 -0.037132263 0.72528076 -0.11576843 1.06781 -0.23387146m9.217712 2.5600586c-0.2576294 -0.33468628 -0.47332764 -0.69233704 -0.6434326 -1.0668411m12.27887 -0.43592072l0 0c0.13293457 -0.38124847 0.21905518 -0.77363586 0.25689697 -1.1706161m8.268311 -2.8821335c0.017211914 -1.858902 -1.2015381 -3.560936 -3.1328125 -4.3750153m7.385742 -4.664261c-0.31274414 0.6329956 -0.79022217 1.1945114 -1.3949585 1.6405334m-1.977356 -7.700638l0 0c0.053344727 0.25561523 0.07800293 0.5150757 0.07366943 0.7747803m-8.249084 -2.672409l0 0c-0.2921753 0.2978363 -0.53289795 0.63064575 -0.7145996 0.9880829m-6.3932495 -0.40499878l0 0c-0.15570068 0.2705078 -0.27197266 0.5567627 -0.34613037 0.85214233m-7.79657 0.23309326l0 0c0.45458984 0.2306366 0.8751831 0.508255 1.2524414 0.8267212m-10.98877 4.794388l0 0c0.04626465 0.29447937 0.11932373 0.5853195 0.2185669 0.869812" fill-rule="nonzero"></path><path fill="#000000" fill-opacity="0.0" d="m722.1506 -108.60951l0 29.354324" fill-rule="nonzero"></path><path stroke="#ffffff" stroke-width="4.0" stroke-linejoin="round" stroke-linecap="butt" d="m722.1506 -108.60951l0 29.354324" fill-rule="nonzero"></path><path fill="#999999" d="m700.9265 -101.821526l0 0c0 -2.8788376 2.3831177 -5.212593 5.322815 -5.212593l0 0c1.4117432 0 2.765625 0.5491791 3.763855 1.5267334c0.99816895 0.9775543 1.559021 2.3033981 1.559021 3.6858597l0 0c0 2.8788452 -2.3831177 5.2126007 -5.322876 5.2126007l0 0c-2.9396973 0 -5.322815 -2.3337555 -5.322815 -5.2126007z" fill-rule="nonzero"></path><path stroke="#000000" stroke-width="2.0" stroke-linejoin="round" stroke-linecap="butt" d="m700.9265 -101.821526l0 0c0 -2.8788376 2.3831177 -5.212593 5.322815 -5.212593l0 0c1.4117432 0 2.765625 0.5491791 3.763855 1.5267334c0.99816895 0.9775543 1.559021 2.3033981 1.559021 3.6858597l0 0c0 2.8788452 -2.3831177 5.2126007 -5.322876 5.2126007l0 0c-2.9396973 0 -5.322815 -2.3337555 -5.322815 -5.2126007z" fill-rule="nonzero"></path><path fill="#000000" fill-opacity="0.0" d="m706.2493 -96.608925l0 18.960632" fill-rule="nonzero"></path><path stroke="#ffffff" stroke-width="2.0" stroke-linejoin="round" stroke-linecap="butt" d="m706.2493 -96.608925l0 18.960632" fill-rule="nonzero"></path><path fill="#000000" d="m504.31628 70.64042l0 0c0 -36.920452 30.303589 -66.850395 67.68506 -66.850395l0 0c17.951172 0 35.167114 7.0431457 47.860535 19.580027c12.69342 12.5368805 19.824463 29.540539 19.824463 47.270367l0 0c0 36.92045 -30.303589 66.850395 -67.685 66.850395l0 0c-37.38147 0 -67.68506 -29.929947 -67.68506 -66.850395z" fill-rule="nonzero"></path><path stroke="#000000" stroke-width="2.0" stroke-linejoin="round" stroke-linecap="butt" d="m504.31628 70.64042l0 0c0 -36.920452 30.303589 -66.850395 67.68506 -66.850395l0 0c17.951172 0 35.167114 7.0431457 47.860535 19.580027c12.69342 12.5368805 19.824463 29.540539 19.824463 47.270367l0 0c0 36.92045 -30.303589 66.850395 -67.685 66.850395l0 0c-37.38147 0 -67.68506 -29.929947 -67.68506 -66.850395z" fill-rule="nonzero"></path><path fill="#000000" d="m510.50525 70.64042l0 0c0 -32.763096 27.532715 -59.322834 61.496094 -59.322834l0 0c16.309753 0 31.951477 6.2500668 43.484253 17.375257c11.532776 11.125189 18.01178 26.214186 18.01178 41.94758l0 0c0 32.7631 -27.532715 59.322838 -61.496033 59.322838l0 0c-33.96338 0 -61.496094 -26.559738 -61.496094 -59.322838z" fill-rule="nonzero"></path><path stroke="#ffffff" stroke-width="2.0" stroke-linejoin="round" stroke-linecap="butt" d="m510.50525 70.64042l0 0c0 -32.763096 27.532715 -59.322834 61.496094 -59.322834l0 0c16.309753 0 31.951477 6.2500668 43.484253 17.375257c11.532776 11.125189 18.01178 26.214186 18.01178 41.94758l0 0c0 32.7631 -27.532715 59.322838 -61.496033 59.322838l0 0c-33.96338 0 -61.496094 -26.559738 -61.496094 -59.322838z" fill-rule="nonzero"></path><path fill="#000000" d="m553.3973 95.71129c-2.3076172 0 -4.1782837 -1.870697 -4.1782837 -4.178314l0 -16.714241c0 -2.3076172 -1.8706665 -4.178314 -4.1782837 -4.178314c2.3076172 0 4.1782837 -1.8706894 4.1782837 -4.1783066l0 -16.714249l0 0c0 -2.3076172 1.8706665 -4.1783104 4.1782837 -4.1783104l37.20807 0c1.1081543 0 2.1708984 0.44021225 2.9544678 1.2238007c0.7836304 0.7835846 1.2238159 1.8463516 1.2238159 2.9545097l0 16.714249c0 2.3076172 1.8706665 4.1783066 4.1782837 4.1783066c-2.3076172 0 -4.1782837 1.870697 -4.1782837 4.178314l0 16.714241c0 2.3076172 -1.8706665 4.178314 -4.1782837 4.178314z" fill-rule="nonzero"></path><path fill="#000000" fill-opacity="0.0" d="m553.3973 95.71129c-2.3076172 0 -4.1782837 -1.870697 -4.1782837 -4.178314l0 -16.714241c0 -2.3076172 -1.8706665 -4.178314 -4.1782837 -4.178314c2.3076172 0 4.1782837 -1.8706894 4.1782837 -4.1783066l0 -16.714249l0 0c0 -2.3076172 1.8706665 -4.1783104 4.1782837 -4.1783104m37.20807 0c1.1081543 0 2.1708984 0.44021225 2.9544678 1.2238007c0.7836304 0.7835846 1.2238159 1.8463516 1.2238159 2.9545097l0 16.714249c0 2.3076172 1.8706665 4.1783066 4.1782837 4.1783066c-2.3076172 0 -4.1782837 1.870697 -4.1782837 4.178314l0 16.714241c0 2.3076172 -1.8706665 4.178314 -4.1782837 4.178314" fill-rule="nonzero"></path><path stroke="#ffffff" stroke-width="4.0" stroke-linejoin="round" stroke-linecap="butt" d="m553.3973 95.71129c-2.3076172 0 -4.1782837 -1.870697 -4.1782837 -4.178314l0 -16.714241c0 -2.3076172 -1.8706665 -4.178314 -4.1782837 -4.178314c2.3076172 0 4.1782837 -1.8706894 4.1782837 -4.1783066l0 -16.714249l0 0c0 -2.3076172 1.8706665 -4.1783104 4.1782837 -4.1783104m37.20807 0c1.1081543 0 2.1708984 0.44021225 2.9544678 1.2238007c0.7836304 0.7835846 1.2238159 1.8463516 1.2238159 2.9545097l0 16.714249c0 2.3076172 1.8706665 4.1783066 4.1782837 4.1783066c-2.3076172 0 -4.1782837 1.870697 -4.1782837 4.178314l0 16.714241c0 2.3076172 -1.8706665 4.178314 -4.1782837 4.178314" fill-rule="nonzero"></path><path fill="#000000" d="m334.44882 70.64173l0 0c0 -36.920452 30.30362 -66.850395 67.68503 -66.850395l0 0c17.951202 0 35.167145 7.043146 47.860565 19.580027c12.69339 12.5368805 19.824493 29.540539 19.824493 47.270367l0 0c0 36.92045 -30.30362 66.850395 -67.68506 66.850395l0 0c-37.38141 0 -67.68503 -29.929947 -67.68503 -66.850395z" fill-rule="nonzero"></path><path stroke="#000000" stroke-width="2.0" stroke-linejoin="round" stroke-linecap="butt" d="m334.44882 70.64173l0 0c0 -36.920452 30.30362 -66.850395 67.68503 -66.850395l0 0c17.951202 0 35.167145 7.043146 47.860565 19.580027c12.69339 12.5368805 19.824493 29.540539 19.824493 47.270367l0 0c0 36.92045 -30.30362 66.850395 -67.68506 66.850395l0 0c-37.38141 0 -67.68503 -29.929947 -67.68503 -66.850395z" fill-rule="nonzero"></path><path fill="#000000" d="m340.6378 70.64173l0 0c0 -32.763096 27.532745 -59.322834 61.496063 -59.322834l0 0c16.309784 0 31.951538 6.2500668 43.484283 17.375257c11.532745 11.125189 18.01178 26.214186 18.01178 41.94758l0 0c0 32.7631 -27.532715 59.322838 -61.496063 59.322838l0 0c-33.963318 0 -61.496063 -26.559738 -61.496063 -59.322838z" fill-rule="nonzero"></path><path stroke="#ffffff" stroke-width="2.0" stroke-linejoin="round" stroke-linecap="butt" d="m340.6378 70.64173l0 0c0 -32.763096 27.532745 -59.322834 61.496063 -59.322834l0 0c16.309784 0 31.951538 6.2500668 43.484283 17.375257c11.532745 11.125189 18.01178 26.214186 18.01178 41.94758l0 0c0 32.7631 -27.532715 59.322838 -61.496063 59.322838l0 0c-33.963318 0 -61.496063 -26.559738 -61.496063 -59.322838z" fill-rule="nonzero"></path><path fill="#000000" fill-opacity="0.0" d="m376.13123 68.50787l22.236237 22.330711" fill-rule="nonzero"></path><path stroke="#ffffff" stroke-width="8.0" stroke-linejoin="round" stroke-linecap="butt" d="m376.13123 68.50787l22.236237 22.330711" fill-rule="nonzero"></path><path fill="#000000" fill-opacity="0.0" d="m395.23096 93.203415l40.944885 -47.748035" fill-rule="nonzero"></path><path stroke="#ffffff" stroke-width="8.0" stroke-linejoin="round" stroke-linecap="butt" d="m395.23096 93.203415l40.944885 -47.748035" fill-rule="nonzero"></path><path fill="#000000" d="m654.2598 70.64304l0 0c0 -36.920452 30.30365 -66.850395 67.68506 -66.850395l0 0c17.951172 0 35.167114 7.043146 47.860535 19.580027c12.69342 12.5368805 19.824524 29.540539 19.824524 47.270367l0 0c0 36.92045 -30.30365 66.850395 -67.68506 66.850395l0 0c-37.38141 0 -67.68506 -29.929947 -67.68506 -66.850395z" fill-rule="nonzero"></path><path stroke="#000000" stroke-width="2.0" stroke-linejoin="round" stroke-linecap="butt" d="m654.2598 70.64304l0 0c0 -36.920452 30.30365 -66.850395 67.68506 -66.850395l0 0c17.951172 0 35.167114 7.043146 47.860535 19.580027c12.69342 12.5368805 19.824524 29.540539 19.824524 47.270367l0 0c0 36.92045 -30.30365 66.850395 -67.68506 66.850395l0 0c-37.38141 0 -67.68506 -29.929947 -67.68506 -66.850395z" fill-rule="nonzero"></path><path fill="#000000" d="m660.4488 70.64304l0 0c0 -32.763096 27.532776 -59.322834 61.496094 -59.322834l0 0c16.309753 0 31.951538 6.2500668 43.484253 17.375257c11.532776 11.125189 18.01178 26.214186 18.01178 41.94758l0 0c0 32.7631 -27.532715 59.322838 -61.496033 59.322838l0 0c-33.963318 0 -61.496094 -26.559738 -61.496094 -59.322838z" fill-rule="nonzero"></path><path stroke="#ffffff" stroke-width="2.0" stroke-linejoin="round" stroke-linecap="butt" d="m660.4488 70.64304l0 0c0 -32.763096 27.532776 -59.322834 61.496094 -59.322834l0 0c16.309753 0 31.951538 6.2500668 43.484253 17.375257c11.532776 11.125189 18.01178 26.214186 18.01178 41.94758l0 0c0 32.7631 -27.532715 59.322838 -61.496033 59.322838l0 0c-33.963318 0 -61.496094 -26.559738 -61.496094 -59.322838z" fill-rule="nonzero"></path><path fill="#ffffff" d="m691.5486 41.05249l12.362183 59.181107l24.724426 0l12.362183 -59.181107z" fill-rule="nonzero"></path><path stroke="#000000" stroke-width="2.0" stroke-linejoin="round" stroke-linecap="butt" d="m691.5486 41.05249l12.362183 59.181107l24.724426 0l12.362183 -59.181107z" fill-rule="nonzero"></path><path fill="#000000" d="m701.59845 61.120735l7.5196533 34.645668l15.039368 0l7.5197144 -34.645668z" fill-rule="nonzero"></path><path stroke="#000000" stroke-width="2.0" stroke-linejoin="round" stroke-linecap="butt" d="m701.59845 61.120735l7.5196533 34.645668l15.039368 0l7.5197144 -34.645668z" fill-rule="nonzero"></path><path fill="#000000" fill-opacity="0.0" d="m743.11285 60.96063l9.2283325 0" fill-rule="nonzero"></path><path stroke="#ffffff" stroke-width="2.0" stroke-linejoin="round" stroke-linecap="butt" d="m743.11285 60.96063l9.2283325 0" fill-rule="nonzero"></path><path fill="#000000" fill-opacity="0.0" d="m743.11285 99.343834l9.2283325 0" fill-rule="nonzero"></path><path stroke="#ffffff" stroke-width="2.0" stroke-linejoin="round" stroke-linecap="butt" d="m743.11285 99.343834l9.2283325 0" fill-rule="nonzero"></path><path fill="#000000" fill-opacity="0.0" d="m747.94226 98.514435l0 -36.031494" fill-rule="nonzero"></path><path stroke="#ffffff" stroke-width="2.0" stroke-linejoin="round" stroke-linecap="butt" d="m747.94226 98.514435l0 -36.031494" fill-rule="nonzero"></path><path fill="#000000" d="m174.5433 240.64304l0 0c0 -36.92044 30.303635 -66.85039 67.68504 -66.85039l0 0c17.951187 0 35.16713 7.043152 47.86055 19.580032c12.69342 12.5368805 19.824493 29.540543 19.824493 47.270355l0 0c0 36.92047 -30.30362 66.8504 -67.68504 66.8504l0 0c-37.38141 0 -67.68504 -29.929932 -67.68504 -66.8504z" fill-rule="nonzero"></path><path stroke="#000000" stroke-width="2.0" stroke-linejoin="round" stroke-linecap="butt" d="m174.5433 240.64304l0 0c0 -36.92044 30.303635 -66.85039 67.68504 -66.85039l0 0c17.951187 0 35.16713 7.043152 47.86055 19.580032c12.69342 12.5368805 19.824493 29.540543 19.824493 47.270355l0 0c0 36.92047 -30.30362 66.8504 -67.68504 66.8504l0 0c-37.38141 0 -67.68504 -29.929932 -67.68504 -66.8504z" fill-rule="nonzero"></path><path fill="#000000" d="m180.73228 240.64305l0 0c0 -32.763107 27.53273 -59.322845 61.496063 -59.322845l0 0c16.309769 0 31.951523 6.2500763 43.4843 17.37526c11.532745 11.125198 18.01178 26.214188 18.01178 41.947586l0 0c0 32.763107 -27.532745 59.32283 -61.49608 59.32283l0 0c-33.963333 0 -61.496063 -26.559723 -61.496063 -59.32283z" fill-rule="nonzero"></path><path stroke="#ffffff" stroke-width="2.0" stroke-linejoin="round" stroke-linecap="butt" d="m180.73228 240.64305l0 0c0 -32.763107 27.53273 -59.322845 61.496063 -59.322845l0 0c16.309769 0 31.951523 6.2500763 43.4843 17.37526c11.532745 11.125198 18.01178 26.214188 18.01178 41.947586l0 0c0 32.763107 -27.532745 59.32283 -61.49608 59.32283l0 0c-33.963333 0 -61.496063 -26.559723 -61.496063 -59.32283z" fill-rule="nonzero"></path><path fill="#ffffff" d="m213.73589 235.10394l0 0c-0.5606842 -2.6697998 1.2801361 -5.312729 4.7413483 -6.807312c3.4612122 -1.4945831 7.935791 -1.5786896 11.524994 -0.21662903l0 0c1.2713928 -1.5523376 3.5984497 -2.624115 6.277237 -2.8911438c2.6788025 -0.2670288 5.3947144 0.30204773 7.326233 1.5350952l0 0c1.0830688 -1.4074402 3.2097015 -2.3530579 5.6252594 -2.5013123c2.4155579 -0.14823914 4.7781677 0.52186584 6.249466 1.7725525l0 0c1.9567413 -1.4918823 5.069931 -2.120041 7.9925385 -1.6126404c2.922577 0.5074005 5.129608 2.059204 5.666107 3.9839478l0 0c2.3973083 0.4236908 4.394226 1.5008087 5.474823 2.9530182c1.0805664 1.4522247 1.138794 3.1371002 0.15963745 4.6193085l0 0c2.3606873 1.9907837 2.9129028 4.643463 1.450592 6.968109c-1.4623108 2.3246613 -4.719452 3.972046 -8.555908 4.327362c-0.027038574 2.181778 -1.8737183 4.1837463 -4.828247 5.234268c-2.9545288 1.0505219 -6.5555115 0.98553467 -9.415024 -0.1698761c-1.2180023 2.6130524 -4.6462555 4.5356903 -8.80365 4.9373016c-4.157379 0.40161133 -8.298599 -0.78982544 -10.634491 -3.0595703c-2.8633118 1.1187592 -6.2990417 1.44104 -9.532181 0.8941345c-3.2331238 -0.5469055 -5.9913025 -1.9169159 -7.6523438 -3.8009949l0 0c-2.925949 0.22184753 -5.7549286 -0.7604065 -7.0829315 -2.4592743c-1.3280182 -1.698883 -0.872345 -3.752716 1.1408539 -5.142227l0 0c-2.6100159 -0.9953613 -3.9418182 -2.9705048 -3.3009033 -4.8954773c0.6409302 -1.9249573 3.109314 -3.3635254 6.1180115 -3.5655518z" fill-rule="nonzero"></path><path fill="#000000" fill-opacity="0.0" d="m210.86093 243.66788l0 0c1.2316742 0.46972656 2.6545563 0.6828003 4.077591 0.61061096m1.8638611 6.991043c0.61195374 -0.046401978 1.2117767 -0.14465332 1.7840271 -0.29223633m15.399643 3.1989899c-0.43041992 -0.41822815 -0.7907715 -0.86512756 -1.0749512 -1.3331146m20.513824 -0.54470825l0 0c0.22206116 -0.47639465 0.36593628 -0.9667053 0.42921448 -1.4627686m13.813522 -3.6014252c0.028778076 -2.3228302 -2.0073547 -4.449646 -5.233856 -5.4669037m12.339111 -5.8283234c-0.522522 0.79096985 -1.320221 1.49263 -2.3305054 2.0499573m-3.3034973 -9.622498l0 0c0.08905029 0.31941223 0.13024902 0.6436157 0.123046875 0.96813965m-13.781433 -3.3393555l0 0c-0.4881134 0.3721466 -0.89024353 0.7880249 -1.1938934 1.2346802m-10.680954 -0.506073l0 0c-0.26011658 0.3380127 -0.45436096 0.6957092 -0.5782471 1.0648041m-13.025421 0.29125977l0 0c0.7594757 0.288208 1.4620819 0.6351013 2.0924072 1.0330505m-18.358536 5.9909363l0 0c0.07727051 0.3679657 0.19937134 0.73139954 0.36515808 1.0868988" fill-rule="nonzero"></path><path stroke="#000000" stroke-width="2.0" stroke-linejoin="round" stroke-linecap="butt" d="m213.73589 235.10394l0 0c-0.5606842 -2.6697998 1.2801361 -5.312729 4.7413483 -6.807312c3.4612122 -1.4945831 7.935791 -1.5786896 11.524994 -0.21662903l0 0c1.2713928 -1.5523376 3.5984497 -2.624115 6.277237 -2.8911438c2.6788025 -0.2670288 5.3947144 0.30204773 7.326233 1.5350952l0 0c1.0830688 -1.4074402 3.2097015 -2.3530579 5.6252594 -2.5013123c2.4155579 -0.14823914 4.7781677 0.52186584 6.249466 1.7725525l0 0c1.9567413 -1.4918823 5.069931 -2.120041 7.9925385 -1.6126404c2.922577 0.5074005 5.129608 2.059204 5.666107 3.9839478l0 0c2.3973083 0.4236908 4.394226 1.5008087 5.474823 2.9530182c1.0805664 1.4522247 1.138794 3.1371002 0.15963745 4.6193085l0 0c2.3606873 1.9907837 2.9129028 4.643463 1.450592 6.968109c-1.4623108 2.3246613 -4.719452 3.972046 -8.555908 4.327362c-0.027038574 2.181778 -1.8737183 4.1837463 -4.828247 5.234268c-2.9545288 1.0505219 -6.5555115 0.98553467 -9.415024 -0.1698761c-1.2180023 2.6130524 -4.6462555 4.5356903 -8.80365 4.9373016c-4.157379 0.40161133 -8.298599 -0.78982544 -10.634491 -3.0595703c-2.8633118 1.1187592 -6.2990417 1.44104 -9.532181 0.8941345c-3.2331238 -0.5469055 -5.9913025 -1.9169159 -7.6523438 -3.8009949l0 0c-2.925949 0.22184753 -5.7549286 -0.7604065 -7.0829315 -2.4592743c-1.3280182 -1.698883 -0.872345 -3.752716 1.1408539 -5.142227l0 0c-2.6100159 -0.9953613 -3.9418182 -2.9705048 -3.3009033 -4.8954773c0.6409302 -1.9249573 3.109314 -3.3635254 6.1180115 -3.5655518z" fill-rule="nonzero"></path><path stroke="#000000" stroke-width="2.0" stroke-linejoin="round" stroke-linecap="butt" d="m210.86093 243.66788l0 0c1.2316742 0.46972656 2.6545563 0.6828003 4.077591 0.61061096m1.8638611 6.991043c0.61195374 -0.046401978 1.2117767 -0.14465332 1.7840271 -0.29223633m15.399643 3.1989899c-0.43041992 -0.41822815 -0.7907715 -0.86512756 -1.0749512 -1.3331146m20.513824 -0.54470825l0 0c0.22206116 -0.47639465 0.36593628 -0.9667053 0.42921448 -1.4627686m13.813522 -3.6014252c0.028778076 -2.3228302 -2.0073547 -4.449646 -5.233856 -5.4669037m12.339111 -5.8283234c-0.522522 0.79096985 -1.320221 1.49263 -2.3305054 2.0499573m-3.3034973 -9.622498l0 0c0.08905029 0.31941223 0.13024902 0.6436157 0.123046875 0.96813965m-13.781433 -3.3393555l0 0c-0.4881134 0.3721466 -0.89024353 0.7880249 -1.1938934 1.2346802m-10.680954 -0.506073l0 0c-0.26011658 0.3380127 -0.45436096 0.6957092 -0.5782471 1.0648041m-13.025421 0.29125977l0 0c0.7594757 0.288208 1.4620819 0.6351013 2.0924072 1.0330505m-18.358536 5.9909363l0 0c0.07727051 0.3679657 0.19937134 0.73139954 0.36515808 1.0868988" fill-rule="nonzero"></path><path fill="#000000" d="m18.484251 217.68242l0 0c0 -36.920456 30.303625 -66.8504 67.685036 -66.8504l0 0c17.951195 0 35.167145 7.043152 47.860558 19.580032c12.693405 12.5368805 19.824478 29.540543 19.824478 47.27037l0 0c0 36.92044 -30.30362 66.85039 -67.685036 66.85039l0 0c-37.381413 0 -67.685036 -29.929947 -67.685036 -66.85039z" fill-rule="nonzero"></path><path stroke="#000000" stroke-width="2.0" stroke-linejoin="round" stroke-linecap="butt" d="m18.484251 217.68242l0 0c0 -36.920456 30.303625 -66.8504 67.685036 -66.8504l0 0c17.951195 0 35.167145 7.043152 47.860558 19.580032c12.693405 12.5368805 19.824478 29.540543 19.824478 47.27037l0 0c0 36.92044 -30.30362 66.85039 -67.685036 66.85039l0 0c-37.381413 0 -67.685036 -29.929947 -67.685036 -66.85039z" fill-rule="nonzero"></path><path fill="#000000" d="m24.67323 217.68242l0 0c0 -32.763107 27.532726 -59.322845 61.496067 -59.322845l0 0c16.309769 0 31.95153 6.2500763 43.484283 17.37526c11.532745 11.125198 18.01178 26.214188 18.01178 41.947586l0 0c0 32.763092 -27.53273 59.32283 -61.496063 59.32283l0 0c-33.96334 0 -61.496067 -26.559738 -61.496067 -59.32283z" fill-rule="nonzero"></path><path stroke="#ffffff" stroke-width="2.0" stroke-linejoin="round" stroke-linecap="butt" d="m24.67323 217.68242l0 0c0 -32.763107 27.532726 -59.322845 61.496067 -59.322845l0 0c16.309769 0 31.95153 6.2500763 43.484283 17.37526c11.532745 11.125198 18.01178 26.214188 18.01178 41.947586l0 0c0 32.763092 -27.53273 59.32283 -61.496063 59.32283l0 0c-33.96334 0 -61.496067 -26.559738 -61.496067 -59.32283z" fill-rule="nonzero"></path><path fill="#b7b7b7" d="m62.762466 221.72441l0 0c0 -2.739685 2.376068 -4.9606323 5.3070908 -4.9606323l0 0c2.9310226 0 5.307083 2.2209473 5.307083 4.9606323l0 0c0 2.739685 -2.3760605 4.9606323 -5.307083 4.9606323l0 0c-2.9310226 0 -5.3070908 -2.2209473 -5.3070908 -4.9606323z" fill-rule="nonzero"></path><path stroke="#000000" stroke-width="2.0" stroke-linejoin="round" stroke-linecap="butt" d="m62.762466 221.72441l0 0c0 -2.739685 2.376068 -4.9606323 5.3070908 -4.9606323l0 0c2.9310226 0 5.307083 2.2209473 5.307083 4.9606323l0 0c0 2.739685 -2.3760605 4.9606323 -5.307083 4.9606323l0 0c-2.9310226 0 -5.3070908 -2.2209473 -5.3070908 -4.9606323z" fill-rule="nonzero"></path><path fill="#000000" fill-opacity="0.0" d="m68.06956 226.68504l-0.12598419 22.11023" fill-rule="nonzero"></path><path stroke="#ffffff" stroke-width="2.0" stroke-linejoin="round" stroke-linecap="butt" d="m68.06956 226.68504l-0.12598419 22.11023" fill-rule="nonzero"></path><path fill="#000000" fill-opacity="0.0" d="m77.822754 199.46399l0 0c8.3016815 8.132034 11.786499 19.990784 9.204063 31.321228l-32.605637 -7.4314575z" fill-rule="nonzero"></path><path fill="#000000" fill-opacity="0.0" d="m77.822754 199.46399l0 0c8.3016815 8.132034 11.786499 19.990784 9.204063 31.321228" fill-rule="nonzero"></path><path stroke="#ffffff" stroke-width="2.0" stroke-linejoin="round" stroke-linecap="butt" d="m77.822754 199.46399l0 0c8.3016815 8.132034 11.786499 19.990784 9.204063 31.321228" fill-rule="nonzero"></path><path fill="#000000" fill-opacity="0.0" d="m86.83137 189.25816l0 0c12.355339 10.968857 17.684517 27.986084 14.002228 44.71222l-46.41168 -8.208282z" fill-rule="nonzero"></path><path fill="#000000" fill-opacity="0.0" d="m86.83137 189.25816l0 0c12.355339 10.968857 17.684517 27.986084 14.002228 44.71222" fill-rule="nonzero"></path><path stroke="#ffffff" stroke-width="2.0" stroke-linejoin="round" stroke-linecap="butt" d="m86.83137 189.25816l0 0c12.355339 10.968857 17.684517 27.986084 14.002228 44.71222" fill-rule="nonzero"></path><path fill="#000000" fill-opacity="0.0" d="m98.09834 178.13914l0 0c16.346344 14.267807 23.846596 36.25598 19.761368 57.933548l-61.320423 -10.311493z" fill-rule="nonzero"></path><path fill="#000000" fill-opacity="0.0" d="m98.09834 178.13914l0 0c16.346344 14.267807 23.846596 36.25598 19.761368 57.933548" fill-rule="nonzero"></path><path stroke="#ffffff" stroke-width="2.0" stroke-linejoin="round" stroke-linecap="butt" d="m98.09834 178.13914l0 0c16.346344 14.267807 23.846596 36.25598 19.761368 57.933548" fill-rule="nonzero"></path><path fill="#000000" d="m3.4475067 -113.35827l0 0c0 -36.92045 30.303627 -66.850395 67.685036 -66.850395l0 0c17.951187 0 35.167145 7.043152 47.86055 19.580032c12.693413 12.5368805 19.824486 29.540543 19.824486 47.270363l0 0c0 36.92045 -30.30362 66.85039 -67.685036 66.85039l0 0c-37.381413 0 -67.685036 -29.929943 -67.685036 -66.85039z" fill-rule="nonzero"></path><path stroke="#000000" stroke-width="2.0" stroke-linejoin="round" stroke-linecap="butt" d="m3.4475067 -113.35827l0 0c0 -36.92045 30.303627 -66.850395 67.685036 -66.850395l0 0c17.951187 0 35.167145 7.043152 47.86055 19.580032c12.693413 12.5368805 19.824486 29.540543 19.824486 47.270363l0 0c0 36.92045 -30.30362 66.85039 -67.685036 66.85039l0 0c-37.381413 0 -67.685036 -29.929943 -67.685036 -66.85039z" fill-rule="nonzero"></path><path fill="#000000" d="m9.636483 -113.35827l0 0c0 -32.7631 27.532726 -59.322838 61.496063 -59.322838l0 0c16.309769 0 31.951538 6.2500763 43.484283 17.37526c11.532753 11.125198 18.011787 26.214188 18.011787 41.94758l0 0c0 32.7631 -27.53273 59.32284 -61.49607 59.32284l0 0c-33.963337 0 -61.496063 -26.559742 -61.496063 -59.32284z" fill-rule="nonzero"></path><path stroke="#ffffff" stroke-width="2.0" stroke-linejoin="round" stroke-linecap="butt" d="m9.636483 -113.35827l0 0c0 -32.7631 27.532726 -59.322838 61.496063 -59.322838l0 0c16.309769 0 31.951538 6.2500763 43.484283 17.37526c11.532753 11.125198 18.011787 26.214188 18.011787 41.94758l0 0c0 32.7631 -27.53273 59.32284 -61.49607 59.32284l0 0c-33.963337 0 -61.496063 -26.559742 -61.496063 -59.32284z" fill-rule="nonzero"></path><path fill="#000000" fill-opacity="0.0" d="m75.167336 -114.02159l17.121887 18.023117" fill-rule="nonzero"></path><path stroke="#ffffff" stroke-width="8.0" stroke-linejoin="round" stroke-linecap="butt" d="m75.167336 -114.02159l17.121887 18.023117" fill-rule="nonzero"></path><path fill="#000000" fill-opacity="0.0" d="m89.87413 -94.08982l31.527557 -38.537437" fill-rule="nonzero"></path><path stroke="#ffffff" stroke-width="8.0" stroke-linejoin="round" stroke-linecap="butt" d="m89.87413 -94.08982l31.527557 -38.537437" fill-rule="nonzero"></path><path fill="#ffffff" d="m20.862206 -114.673225l40.31496 0l0 -5.527565l11.055119 11.055122l-11.055119 11.055115l0 -5.5275574l-40.31496 0z" fill-rule="nonzero"></path><path stroke="#000000" stroke-width="2.0" stroke-linejoin="round" stroke-linecap="butt" d="m20.862206 -114.673225l40.31496 0l0 -5.527565l11.055119 11.055122l-11.055119 11.055115l0 -5.5275574l-40.31496 0z" fill-rule="nonzero"></path><path fill="#00ff00" d="m-276.27692 200.64043l38.787415 -16.551193l38.7874 16.551193l-38.7874 16.551178z" fill-rule="nonzero"></path><path stroke="#000000" stroke-width="2.0" stroke-linejoin="round" stroke-linecap="butt" d="m-276.27692 200.64043l38.787415 -16.551193l38.7874 16.551193l-38.7874 16.551178z" fill-rule="nonzero"></path><path fill="#000000" d="m-239.8517 200.64043l0 0c0 -1.0437012 1.0575867 -1.8897705 2.3621979 -1.8897705l0 0c1.3046112 0 2.3621979 0.84606934 2.3621979 1.8897705l0 0c0 1.0436859 -1.0575867 1.8897552 -2.3621979 1.8897552l0 0c-1.3046112 0 -2.3621979 -0.84606934 -2.3621979 -1.8897552z" fill-rule="nonzero"></path><path stroke="#000000" stroke-width="2.0" stroke-linejoin="round" stroke-linecap="butt" d="m-239.8517 200.64043l0 0c0 -1.0437012 1.0575867 -1.8897705 2.3621979 -1.8897705l0 0c1.3046112 0 2.3621979 0.84606934 2.3621979 1.8897705l0 0c0 1.0436859 -1.0575867 1.8897552 -2.3621979 1.8897552l0 0c-1.3046112 0 -2.3621979 -0.84606934 -2.3621979 -1.8897552z" fill-rule="nonzero"></path><path fill="#000000" fill-opacity="0.0" d="m-235.1273 200.64043l15.370087 8.818893" fill-rule="nonzero"></path><path stroke="#000000" stroke-width="2.0" stroke-linejoin="round" stroke-linecap="butt" d="m-235.1273 200.64043l15.370087 8.818893" fill-rule="nonzero"></path><path fill="#00ff00" d="m-141.61116 -55.49826l23.985603 0l0 -23.985603l22.5792 0l0 23.985603l23.985596 0l0 22.5792l-23.985596 0l0 23.9856l-22.5792 0l0 -23.9856l-23.985603 0z" fill-rule="nonzero"></path><path stroke="#000000" stroke-width="2.0" stroke-linejoin="round" stroke-linecap="butt" d="m-141.61116 -55.49826l23.985603 0l0 -23.985603l22.5792 0l0 23.985603l23.985596 0l0 22.5792l-23.985596 0l0 23.9856l-22.5792 0l0 -23.9856l-23.985603 0z" fill-rule="nonzero"></path></g></svg>

