<?xml version="1.0" encoding="UTF-8"?>
<svg width="959" height="593" xmlns="http://www.w3.org/2000/svg" xmlns:xlink="http://www.w3.org/1999/xlink">
 <style type="text/css">.state {
	fill:#d3d3d3;
	stroke:#fff;
	stroke-width:0.75;
	stroke-opacity:1;
}</style>

 <g>
  <title>Layer 1</title>
  <path class="state" id="HI" d="m233.087509,519.309509l1.939926,-3.55658l2.26326,-0.323303l0.323318,0.808289l-2.101593,3.071594l-2.424911,0zm10.184662,-3.718201l6.143127,2.586548l2.101593,-0.323303l1.616608,-3.879883l-0.646637,-3.394867l-4.203201,-0.484985l-4.041534,1.778259l-0.969955,3.718231zm30.715622,10.02301l3.718201,5.49646l2.424927,-0.323303l1.131622,-0.484985l1.454956,1.293274l3.718201,-0.161682l0.969971,-1.454956l-2.909912,-1.778259l-1.939911,-3.718201l-2.101593,-3.556519l-5.819824,2.909851l-0.646637,1.77832zm20.207642,8.891357l1.293304,-1.939941l4.688171,0.969971l0.646637,-0.484985l6.143127,0.646606l-0.323303,1.293335l-2.586578,1.454956l-4.364868,-0.323364l-5.49649,-1.616577zm5.334839,5.173157l1.939941,3.879883l3.071533,-1.131653l0.323334,-1.616638l-1.616608,-2.101563l-3.718201,-0.323303l0,1.293274zm6.951416,-1.131653l2.263275,-2.909912l4.688171,2.424927l4.364838,1.131653l4.364868,2.74823l0,1.939941l-3.556549,1.778259l-4.849854,0.969971l-2.424896,-1.454956l-4.849854,-6.628113zm16.651123,15.51947l1.616608,-1.293274l3.394897,1.616638l7.598053,3.556519l3.394897,2.101624l1.616608,2.424866l1.939941,4.364868l4.041534,2.586609l-0.323334,1.293274l-3.879883,3.233215l-4.203186,1.454956l-1.454956,-0.646606l-3.071564,1.778259l-2.424896,3.233215l-2.263275,2.909912l-1.778259,-0.161682l-3.556549,-2.586609l-0.323334,-4.526489l0.646667,-2.424927l-1.616638,-5.658142l-2.101593,-1.778259l-0.161652,-2.586609l2.263245,-0.96991l2.101624,-3.071594l0.484955,-0.969971l-1.616608,-1.778259l-0.323303,-2.101624z"/>
  <path class="state" id="AK" d="m158.076706,453.675018l-0.323318,85.357147l1.616592,0.969971l3.071579,0.161621l1.454941,-1.131592l2.586578,0l0.161667,2.909912l6.951431,6.789734l0.484985,2.586609l3.394882,-1.939941l0.646652,-0.161682l0.323318,-3.071533l1.454941,-1.616638l1.131638,-0.161682l1.939926,-1.454956l3.071564,2.101624l0.646652,2.909912l1.939926,1.131592l1.131638,2.424927l3.879883,1.778259l3.394882,5.981506l2.74823,3.879883l2.263245,2.74823l1.454971,3.718201l5.01149,1.778259l5.173172,2.101624l0.969955,4.364807l0.484985,3.071594l-0.969971,3.394897l-1.778275,2.263245l-1.616608,-0.808289l-1.454956,-3.071594l-2.748245,-1.454956l-1.778259,-1.131592l-0.808319,0.808289l1.454956,2.74823l0.161667,3.718201l-1.131638,0.484985l-1.939926,-1.939941l-2.101593,-1.293274l0.484985,1.616638l1.293274,1.778259l-0.808304,0.808289c0,0 -0.808304,-0.323303 -1.293274,-0.969971c-0.485001,-0.646606 -2.101608,-3.394897 -2.101608,-3.394897l-0.969955,-2.263245c0,0 -0.323334,1.293274 -0.969971,0.969971c-0.646652,-0.323303 -1.293304,-1.454956 -1.293304,-1.454956l1.778275,-1.939941l-1.454941,-1.454956l0,-5.011475l-0.808304,0l-0.808304,3.394897l-1.131638,0.484985l-0.969955,-3.718201l-0.646652,-3.718262l-0.808319,-0.484924l0.323334,5.658142l0,1.131592l-1.454956,-1.293274l-3.556549,-5.981445l-2.101593,-0.484985l-0.646637,-3.718201l-1.616608,-2.909912l-1.616623,-1.131653l0,-2.263245l2.101593,-1.293274l-0.48497,-0.323364l-2.586578,0.646667l-3.394897,-2.424927l-2.586578,-2.909912l-4.849838,-2.586548l-4.041534,-2.586609l1.293304,-3.233215l0,-1.616577l-1.77829,1.616577l-2.909897,1.131653l-3.718201,-1.131653l-5.658157,-2.424927l-5.496475,0l-0.646637,0.484985l-6.466446,-3.879883l-2.101608,-0.323303l-2.74823,-5.819824l-3.556549,0.323364l-3.556557,1.454956l0.484993,4.526489l1.131622,-2.909912l0.969971,0.323364l-1.454956,4.364807l3.233231,-2.74823l0.646637,1.616638l-3.879868,4.364807l-1.293289,-0.323303l-0.484978,-1.939941l-1.293289,-0.808289l-1.293289,1.131653l-2.748245,-1.77832l-3.071564,2.101624l-1.778259,2.101563l-3.39489,2.101624l-4.688187,-0.161682l-0.484978,-2.101563l3.718201,-0.646667l0,-1.293274l-2.26326,-0.646667l0.969978,-2.424927l2.263252,-3.879822l0,-1.77832l0.161659,-0.808289l4.364861,-2.263245l0.969963,1.293274l2.748245,0l-1.293289,-2.586548l-3.718216,-0.323364l-5.01149,2.74823l-2.424927,3.394897l-1.778267,2.586609l-1.13163,2.263245l-4.203186,1.454956l-3.071571,2.586548l-0.323326,1.616638l2.26326,0.969971l0.808311,2.101563l-2.748245,3.233276l-6.466438,4.203186l-7.75975,4.203186l-2.101593,1.131592l-5.334824,1.131653l-5.334824,2.263245l1.778275,1.293335l-1.454956,1.454895l-0.484978,1.131653l-2.748238,-0.969971l-3.233223,0.161682l-0.808311,2.263245l-0.969963,0l0.323322,-2.424927l-3.556553,1.293274l-2.909897,0.969971l-3.394886,-1.293274l-2.909901,1.939941l-3.233227,0l-2.101597,1.293274l-1.616611,0.808289l-2.101593,-0.323303l-2.586582,-1.131592l-2.263256,0.646606l-0.969967,0.969971l-1.616611,-1.131592l0,-1.939941l3.071564,-1.293335l6.304787,0.646667l4.364853,-1.616638l2.101597,-2.101563l2.909901,-0.646667l1.778275,-0.808289l2.748238,0.161682l1.616615,1.293274l0.969963,-0.323303l2.263256,-2.74823l3.071571,-0.970032l3.394875,-0.646606l1.293297,-0.323303l0.646645,0.484924l0.808311,0l1.293282,-3.718201l4.041534,-1.454895l1.939934,-3.718262l2.26326,-4.526489l1.616615,-1.454956l0.323318,-2.586609l-1.616615,1.293335l-3.39489,0.646606l-0.646645,-2.424866l-1.293282,-0.323364l-0.969971,0.969971l-0.161659,2.909912l-1.454956,-0.161682l-1.454948,-5.819763l-1.293289,1.293274l-1.13163,-0.484985l-0.323318,-1.939941l-4.041534,0.161682l-2.101593,1.131592l-2.586578,-0.323303l1.454945,-1.454956l0.484982,-2.586548l-0.646641,-1.939941l1.454952,-0.969971l1.293285,-0.161682l-0.646641,-1.778259l0,-4.364868l-0.969963,-0.969971l-0.808311,1.454956l-6.143124,0l-1.454952,-1.293274l-0.646645,-3.879883l-2.101597,-3.55658l0,-0.96991l2.101597,-0.80835l0.161659,-2.101563l1.13163,-1.131653l-0.808304,-0.484985l-1.293293,0.484985l-1.131626,-2.74823l0.969967,-5.011505l4.526512,-3.233215l2.586578,-1.616608l1.939934,-3.718201l2.748249,-1.293304l2.586578,1.131622l0.323318,2.424927l2.424919,-0.323334l3.233223,-2.424896l1.616615,0.646637l0.969955,0.646637l1.616615,0l2.26326,-1.293274l0.808319,-4.364868c0,0 0.323318,-2.909882 0.969963,-3.394897c0.646637,-0.484955 0.969963,-0.96994 0.969963,-0.96994l-1.13163,-1.939941l-2.586578,0.808319l-3.233231,0.808289l-1.939934,-0.484985l-3.556541,-1.77829l-5.011494,-0.161652l-3.556553,-3.718201l0.484982,-3.879852l0.646652,-2.424927l-2.101597,-1.77829l-1.939938,-3.718201l0.484985,-0.808319l6.789768,-0.484955l2.101601,0l0.969963,0.96994l0.646645,0l-0.161659,-1.616608l3.879868,-0.646637l2.586571,0.323334l1.454956,1.131622l-1.454956,2.101593l-0.484978,1.454956l2.748253,1.616608l5.01149,1.778259l1.778282,-0.96994l-2.26326,-4.364868l-0.969971,-3.233215l0.969971,-0.808319l-3.39489,-1.939941l-0.484985,-1.131622l0.484985,-1.616608l-0.808304,-3.879852l-2.909912,-4.688202l-2.424919,-4.203186l2.909912,-1.939941l3.233223,0l1.778275,0.646667l4.203194,-0.161682l3.718201,-3.556519l1.131638,-3.071594l3.718208,-2.424896l1.616608,0.969971l2.748238,-0.646667l3.718208,-2.101593l1.131638,-0.161652l0.969963,0.808319l4.526512,-0.161682l2.748238,-3.071564l1.13163,0l3.556549,2.424927l1.939934,2.101593l-0.484985,1.131622l0.646645,1.131622l1.616615,-1.616608l3.879875,0.323334l0.323318,3.718201l1.939941,1.454956l7.113091,0.646637l6.304794,4.203186l1.454941,-0.96994l5.173157,2.586578l2.101593,-0.646637l1.939941,-0.808319l4.849838,1.939911l4.364853,2.909912zm-115.102798,28.937347l2.101597,5.334839l-0.161663,0.969971l-2.909901,-0.323334l-1.778275,-4.041534l-1.778271,-1.454926l-2.424919,0l-0.161663,-2.586609l1.778275,-2.424927l1.13163,2.424927l1.454948,1.454956l2.748241,0.646637zm-2.586582,33.463867l3.718212,0.80835l3.718204,0.96991l0.808308,0.970032l-1.616611,3.718201l-3.071564,-0.161682l-3.394886,-3.556519l-0.161663,-2.748291zm-20.692635,-14.064514l1.13163,2.586578l1.131628,1.616608l-1.131628,0.808319l-2.101597,-3.071564l0,-1.939941l0.969967,0zm-13.741202,73.070862l3.394886,-2.263245l3.394885,-0.969971l2.586579,0.323303l0.484983,1.616638l1.939935,0.484985l1.939934,-1.939941l-0.323322,-1.616577l2.748241,-0.646667l2.909903,2.586548l-1.13163,1.77832l-4.364851,1.131592l-2.748243,-0.484985l-3.718205,-1.131592l-4.364854,1.454956l-1.616612,0.323303l-1.131628,-0.646667zm48.983347,-4.526489l1.616611,1.939941l2.101593,-1.616638l-1.454948,-1.293274l-2.263256,0.969971zm2.909904,3.071533l1.131622,-2.263245l2.101597,0.323303l-0.8083,1.939941l-2.424919,0zm23.602531,-1.939941l1.454956,1.77832l0.969978,-1.131653l-0.808319,-1.939941l-1.616615,1.293274zm8.729713,-12.447876l1.13163,5.819763l2.909897,0.80835l5.011497,-2.909912l4.364853,-2.586609l-1.6166,-2.424866l0.484978,-2.424927l-2.101593,1.293274l-2.909904,-0.808289l1.616608,-1.131653l1.939934,0.808289l3.879868,-1.778259l0.484993,-1.454956l-2.424919,-0.808289l0.808296,-1.939941l-2.748238,1.939941l-4.688171,3.556519l-4.849838,2.909912l-1.293289,1.131653zm42.35524,-19.884338l2.424911,-1.454956l-0.969955,-1.778259l-1.778275,0.969971l0.323318,2.263245z"/>
  <path class="state" id="FL" d="m759.816711,439.142792l2.265686,7.318604l3.729675,9.742249l5.334778,9.376312l3.718201,6.304749l4.849792,5.49646l4.041565,3.718201l1.616577,2.909882l-1.131653,1.293274l-0.808289,1.293304l2.909912,7.436371l2.909851,2.909882l2.586609,5.334808l3.556519,5.819763l4.526489,8.24472l1.293274,7.598022l0.484985,11.962891l0.646667,1.778259l-0.323364,3.394836l-2.424866,1.293274l0.323303,1.939941l-0.646667,1.939941l0.323364,2.424927l0.484985,1.93988l-2.74823,3.233215l-3.071594,1.454956l-3.879822,0.161682l-1.454956,1.616577l-2.424866,0.969971l-1.293335,-0.484985l-1.131592,-0.969971l-0.323303,-2.909851l-0.80835,-3.394897l-3.394836,-5.173157l-3.55658,-2.263245l-3.879822,-0.323303l-0.808289,1.293274l-3.071533,-4.364807l-0.646667,-3.556519l-2.586548,-4.041504l-1.778259,-1.131653l-1.616638,2.101563l-1.778259,-0.323303l-2.101563,-5.011475l-2.909912,-3.879822l-2.909912,-5.334839l-2.586548,-3.071533l-3.556519,-3.71817l2.101563,-2.424927l3.233215,-5.49646l-0.161621,-1.616608l-4.526489,-0.96994l-1.616638,0.646637l0.323303,0.646637l2.586609,0.969971l-1.454956,4.526489l-0.808289,0.484985l-1.778259,-4.041534l-1.293335,-4.849792l-0.323303,-2.74823l1.454956,-4.688171l0,-9.537964l-3.071533,-3.718201l-1.293335,-3.071533l-5.173096,-1.293274l-1.939941,-0.646637l-1.616577,-2.586578l-3.394897,-1.616608l-1.131592,-3.394867l-2.74823,-0.969971l-2.424927,-3.718201l-4.203186,-1.454926l-2.909912,-1.454956l-2.586548,0l-4.041504,0.808319l-0.161682,1.939911l0.80835,0.969971l-0.484985,1.131622l-3.071533,-0.161652l-3.718201,3.556519l-3.55658,1.939911l-3.879822,0l-3.233215,1.293304l-0.323303,-2.74823l-1.616638,-1.939941l-2.909851,-1.131622l-1.616638,-1.454926l-8.083008,-3.879852l-7.598022,-1.778259l-4.364868,0.646637l-5.981445,0.484985l-5.981445,2.101563l-3.479187,0.612976l-0.237915,-8.049744l-2.586609,-1.939941l-1.778259,-1.778259l0.323303,-3.071564l10.184631,-1.293274l25.542419,-2.909882l6.789734,-0.646637l5.435974,0.280273l2.586609,3.879852l1.454956,1.454926l8.098145,0.515228l10.819763,-0.646637l21.51239,-1.293304l5.445679,-0.674347l5.107605,0.204498l0.426819,2.909882l2.232971,0.808319l0.234985,-4.630005l-1.528259,-4.172943l1.308411,-1.43985l5.554626,0.454742l5.173157,0.323334zm12.54541,132.40506l2.424927,-0.646606l1.293274,-0.242493l1.454956,-2.344116l2.344055,-1.616577l1.293335,0.484985l1.697449,0.323303l0.404114,1.050781l-3.475708,1.212463l-4.203186,1.454956l-2.344055,1.212463l-0.88916,-0.88916zm13.498718,-5.011475l1.212463,1.050781l2.74823,-2.101563l5.334778,-4.203186l3.718201,-3.879883l2.505798,-6.628113l0.969971,-1.697449l0.161621,-3.394836l-0.727478,0.484985l-0.969971,2.829041l-1.454956,4.607361l-3.233215,5.253967l-4.364807,4.203186l-3.394897,1.939941l-2.505737,1.535767z"/>
  <path class="state" id="NH" d="m880.799011,142.424759l0.869019,-1.076492l1.09021,-3.291031l-2.543091,-0.913467l-0.484985,-3.071564l-3.879883,-1.131622l-0.323303,-2.74823l-7.274719,-23.440826l-4.60144,-14.542984l-0.897095,-0.005104l-0.646606,1.616608l-0.646667,-0.484978l-0.969971,-0.969963l-1.454956,1.939919l-0.048462,5.032059l0.311646,5.667213l1.939941,2.748245l0,4.041519l-3.718201,5.062782l-2.586609,1.131638l0,1.131622l1.131653,1.778267l0,8.568016l-0.80835,9.214676l-0.161621,4.849823l0.969971,1.293289l-0.161682,4.526489l-0.484985,1.77829l0.968811,0.709213l16.787659,-4.424545l2.174866,-0.602448l1.843567,-2.773331l3.605286,-1.613129l0,0.000046z"/>
  <path fill="none" stroke="#a9a9a9" stroke-width="2" id="path57" d="m211,493l0,55l36,45m-247,-168l144,0l67,68l86,0l53,54l0,46"/>
  <g class="state" id="MI">
   <path stroke="#fff" stroke-width="0.75" id="MI-" d="m697.860046,177.236893l-3.233215,-8.24469l-2.263245,-9.052979l-2.424927,-3.233215l-2.586548,-1.778275l-1.616577,1.131638l-3.879883,1.778259l-1.939941,5.011475l-2.74823,3.718201l-1.131592,0.646637l-1.454956,-0.646637c0,0 -2.586548,-1.454956 -2.424927,-2.101593c0.161682,-0.646637 0.484985,-5.011475 0.484985,-5.011475l3.394897,-1.293289l0.808289,-3.394867l0.646667,-2.586563l2.424866,-1.616608l-0.323303,-10.022949l-1.616577,-2.263245l-1.293274,-0.808304l-0.80835,-2.101578l0.80835,-0.808304l1.616577,0.323318l0.161682,-1.616608l-2.424927,-2.263245l-1.293274,-2.586563l-2.586609,0l-4.526489,-1.454956l-5.49646,-3.394867l-2.74823,0l-0.646606,0.646652l-0.969971,-0.484993l-3.071533,-2.263237l-2.909912,1.778259l-2.909851,2.263245l0.323303,3.556534l0.969971,0.323318l2.101563,0.484985l0.484985,0.808289l-2.586548,0.808319l-2.586609,0.323318l-1.454895,1.778259l-0.323364,2.101593l0.323364,1.616592l0.323303,5.49646l-3.556519,2.101593l-0.646667,-0.161667l0,-4.203171l1.293274,-2.424896l0.646667,-2.424911l-0.808289,-0.808304l-1.939941,0.808304l-0.969971,4.203171l-2.74823,1.131622l-1.778259,1.939926l-0.161682,0.969955l0.646667,0.808304l-0.646667,2.586563l-2.263245,0.484985l0,1.131622l0.80835,2.424911l-1.131653,6.143097l-1.616577,4.041504l0.646606,4.688171l0.484985,1.131607l-0.808289,2.424911l-0.323303,0.808304l-0.323364,2.74823l3.556519,5.98143l2.909912,6.466415l1.454956,4.849823l-0.808289,4.688156l-0.969971,5.98143l-2.424927,5.173141l-0.323303,2.74823l-3.258911,3.085144l4.40863,-0.162048l21.418518,-2.263245l7.277832,-0.987061l0.096375,1.666351l6.851929,-1.212463l10.298096,-1.503128l3.854187,-0.460922l0.138062,-0.58754l0.161682,-1.454941l2.101563,-3.718185l2.000549,-1.737854l-0.22229,-5.051895l1.596985,-1.596985l1.090637,-0.342941l0.22229,-3.556534l1.535767,-3.031113l1.050781,0.606216l0.161682,0.646637l0.808289,0.161667l1.939941,-0.969971l-0.323364,-9.537964z"/>
   <path stroke="#fff" stroke-width="0.75" id="SP-" d="m581.619324,82.059006l1.828979,-2.057602l2.171936,-0.800186l5.37262,-3.886597l2.286255,-0.571556l0.457214,0.457253l-5.143982,5.14402l-3.315063,1.943291l-2.057617,0.914497l-1.600342,-1.14312zm86.174377,32.128181l0.646667,2.505745l3.233215,0.161659l1.293274,-1.212463c0,0 -0.080811,-1.454941 -0.404175,-1.616608c-0.323303,-0.161659 -1.616577,-1.8591 -1.616577,-1.8591l-2.182434,0.242493l-1.616638,0.161659l-0.323303,1.13163l0.969971,0.484985zm-100.301575,-2.974007l0.716248,-0.580399l2.74823,-0.808311l3.556519,-2.263237l0,-0.969971l0.646667,-0.646645l5.981445,-0.969955l2.424927,-1.939934l4.364807,-2.101578l0.161682,-1.293289l1.93988,-2.909889l1.778259,-0.808296l1.293335,-1.778267l2.263245,-2.263245l4.364807,-2.424911l4.688171,-0.484978l1.131592,1.131622l-0.323303,0.969963l-3.718201,0.969963l-1.454956,3.071548l-2.263245,0.808304l-0.484985,2.424904l-2.424866,3.233208l-0.323364,2.586571l0.80835,0.484985l0.969971,-1.131622l3.556519,-2.909889l1.293274,1.293282l2.263245,0l3.233215,0.969955l1.454956,1.13163l1.454895,3.071548l2.74823,2.748222l3.879883,-0.161659l1.454956,-0.969963l1.616577,1.293282l1.616638,0.484993l1.293274,-0.808311l1.131592,0l1.616638,-0.969963l4.041504,-3.556526l3.394836,-1.131622l6.628113,-0.323318l4.526489,-1.939934l2.586548,-1.293274l1.454956,0.161659l0,5.658112l0.484985,0.323318l2.909851,0.808311l1.939941,-0.484993l6.143127,-1.6166l1.131592,-1.131622l1.454956,0.484985l0,6.951393l3.233215,3.071556l1.293274,0.646637l1.293274,0.969963l-1.293274,0.323318l-0.808289,-0.323318l-3.718201,-0.484985l-2.101563,0.646645l-2.263245,-0.161659l-3.233215,1.454948l-1.778259,0l-5.819824,-1.293289l-5.173096,0.161659l-1.939941,2.586571l-6.951416,0.646637l-2.424866,0.808304l-1.131653,3.071548l-1.293274,1.13163l-0.484985,-0.161659l-1.454956,-1.616615l-4.526489,2.424911l-0.646606,0l-1.131653,-1.616608l-0.808289,0.161659l-1.939941,4.364845l-0.969971,4.041504l-3.181091,7.000809l-1.176758,-1.034271l-1.371765,-1.031326l-1.940796,-10.288017l-3.544434,-1.370056l-2.052612,-2.286224l-12.120361,-2.743484l-2.855286,-1.02964l-8.230408,-2.172737l-7.889954,-1.14312l-3.719299,-5.145691z"/>
  </g>
  <path class="state" id="VT" d="m844.484131,154.057907l0.316711,-5.345627l-2.890747,-10.78418l-0.646606,-0.323318l-2.909912,-1.293289l0.808289,-2.909882l-0.808289,-2.101593l-2.700073,-4.639984l0.969971,-3.87986l-0.808289,-5.173149l-2.424927,-6.466438l-0.805542,-4.922508l26.419373,-6.731819l0.308655,5.522209l1.91626,2.742226l0,4.041519l-3.707153,5.057991l-2.586548,1.14267l-0.010986,1.120575l1.309937,1.519119l-0.310913,8.097961l-0.609436,9.258865l-0.227905,5.556946l0.96991,1.293289l-0.161621,4.570694l-0.484985,1.68988l1.01416,0.727158l-7.437561,1.506714l-4.501709,0.723831l-0.000061,0z"/>
  <path class="state" id="ME" d="m922.839783,78.830719l1.939941,2.101585l2.263245,3.718193l0,1.939926l-2.101624,4.688148l-1.93988,0.646645l-3.394897,3.071548l-4.849792,5.496452c0,0 -0.646667,0 -1.293274,0c-0.646667,0 -0.969971,-2.101578 -0.969971,-2.101578l-1.778259,0.161659l-0.969971,1.454941l-2.424927,1.454948l-0.969971,1.454941l1.616638,1.454941l-0.484985,0.646652l-0.484985,2.748215l-1.939941,-0.161659l0,-1.6166l-0.323303,-1.293289l-1.454956,0.323334l-1.778259,-3.233215l-2.101563,1.293282l1.293274,1.454941l0.323303,1.13163l-0.808289,1.293282l0.323303,3.071548l0.161682,1.6166l-1.616638,2.586571l-2.909851,0.484978l-0.323364,2.909889l-5.334778,3.071556l-1.293274,0.484978l-1.616638,-1.454941l-3.071533,3.556526l0.969971,3.233215l-1.454956,1.293282l-0.161621,4.364822l-1.123291,6.259369l-2.46228,-1.15596l-0.484985,-3.071548l-3.879822,-1.131638l-0.323364,-2.748245l-7.274719,-23.440811l-4.698608,-14.639748l1.420593,-0.118164l1.513733,0.409904l0,-2.586571l1.30835,-4.49646l2.586548,-4.688148l1.454956,-4.041512l-1.939941,-2.424911l0,-5.981438l0.808289,-0.969963l0.80835,-2.748222l-0.161682,-1.454948l-0.161682,-4.849812l1.778259,-4.849815l2.909912,-8.891327l2.101563,-4.203171l1.293335,0l1.293274,0.161659l0,1.131622l1.293274,2.263248l2.74823,0.646641l0.808289,-0.8083l0,-0.969963l4.041504,-2.909889l1.778259,-1.778267l1.454956,0.161663l5.981445,2.424908l1.939941,0.969959l9.052979,29.907192l5.981445,0l0.808289,1.939919l0.161682,4.849815l2.909851,2.263245l0.808289,0l0.161682,-0.484978l-0.484985,-1.131622l2.74823,-0.161659zm-20.931763,30.14753l1.535767,-1.535774l1.374146,1.050797l0.565796,2.424919l-1.697449,0.88913l-1.778259,-2.829071zm6.708923,-5.90062l1.778259,1.8591c0,0 1.293335,0.080803 1.293335,-0.2425c0,-0.323318 0.242493,-2.02076 0.242493,-2.02076l0.889099,-0.808296l-0.808289,-1.778282l-2.020752,0.727478l-1.374146,2.26326z"/>
  <path class="state" id="RI" d="m874.070007,178.895355l-3.695801,-14.955994l6.269287,-1.845139l2.191162,1.927124l3.306458,4.320648l2.687927,4.402084l-2.99939,1.624802l-1.293274,-0.161667l-1.131592,1.778275l-2.424927,1.939911l-2.909851,0.969955z"/>
  <path class="state" id="NY" d="m830.379456,188.745605l-1.131653,-0.969955l-2.586548,-0.161667l-2.263245,-1.939911l-1.630615,-6.129135l-3.458435,0.0905l-2.443726,-2.708206l-19.385315,4.381943l-43.00177,8.729691l-7.529663,1.227997l-0.738159,-6.468353l1.428101,-1.125366l1.293274,-1.131622l0.969971,-1.616608l1.778259,-1.131622l1.939941,-1.778275l0.484985,-1.616592l2.101563,-2.74823l1.131592,-0.969971l-0.161621,-0.969971l-1.293274,-3.071533l-1.778259,-0.161667l-1.939941,-6.143097l2.909851,-1.778275l4.364868,-1.454941l4.041504,-1.293289l3.233215,-0.48497l6.304749,-0.161667l1.939941,1.293289l1.616577,0.161667l2.101624,-1.293289l2.586548,-1.131622l5.173157,-0.484985l2.101563,-1.778259l1.778259,-3.233215l1.616638,-1.939926l2.101563,0l1.939941,-1.131622l0.161621,-2.263245l-1.454895,-2.101593l-0.323364,-1.454941l1.131653,-2.101578l0,-1.454941l-1.778259,0l-1.778259,-0.808304l-0.80835,-1.131638l-0.161621,-2.586563l5.819763,-5.496445l0.646606,-0.808304l1.454956,-2.909897l2.909912,-4.526497l2.74823,-3.718193l2.101563,-2.424896l2.4151,-1.825607l3.08136,-1.245941l5.49646,-1.293289l3.233215,0.161659l4.526489,-1.454941l7.565186,-2.071175l0.519775,4.979675l2.424927,6.466438l0.80835,5.173149l-0.969971,3.87986l2.586548,4.526497l0.808289,2.101593l-0.808289,2.909897l2.909912,1.293289l0.646606,0.323318l3.071594,10.992935l-0.536316,5.059677l-0.484985,10.831268l0.80835,5.49646l0.808289,3.556549l1.454956,7.274734l0,8.083038l-1.131653,2.26326l1.839355,1.992783l0.796509,1.678421l-1.93988,1.778275l0.323303,1.293274l1.293274,-0.323318l1.454956,-1.293274l2.263245,-2.586578l1.131592,-0.646637l1.616638,0.646637l2.263245,0.161667l7.921326,-3.879852l2.909912,-2.74823l1.293274,-1.454941l4.203186,1.616592l-3.394897,3.556534l-3.879822,2.909897l-7.113037,5.334793l-2.586609,0.969971l-5.819763,1.939911l-4.041504,1.131638l-1.174744,-0.532928l-0.244019,-3.688538l0.484985,-2.748245l-0.161682,-2.101578l-2.813477,-1.69899l-4.526489,-0.969971l-3.879883,-1.131622l-3.718201,-1.77829l0,0.000046z"/>
  <path class="state" id="PA" d="m825.123718,224.692047l1.308411,-0.270996l2.329529,-1.25325l1.211914,-2.483078l1.616577,-2.263245l3.233215,-3.071564l0,-0.808304l-2.424927,-1.616592l-3.556519,-2.424927l-0.969971,-2.586563l-2.74823,-0.323318l-0.161682,-1.131638l-0.808289,-2.74823l2.263245,-1.131622l0.161682,-2.424911l-1.293274,-1.293289l0.161621,-1.616608l1.939941,-3.071548l0,-3.071564l2.697632,-2.645889l-0.920288,-0.674973l-2.524048,-0.192917l-2.294495,-1.939911l-1.549927,-6.116058l-3.504578,0.10051l-2.455261,-2.703323l-18.090942,4.197769l-43.00177,8.729691l-8.891357,1.454941l-0.620667,-6.521393l-5.362549,5.067657l-1.293274,0.48497l-4.202332,3.008896l2.910767,19.137451l2.481689,9.729355l3.571777,19.26149l3.269287,-0.63768l11.943604,-1.502472l37.926636,-7.665192l14.876221,-2.823334l8.300354,-1.622345l0.26709,-0.238541l2.101624,-1.616623l2.101563,-0.680832z"/>
  <path class="state" id="NJ" d="m829.679443,188.460159l-2.322571,2.734268l0,3.071564l-1.939941,3.071548l-0.161621,1.616623l1.293274,1.293274l-0.161621,2.424927l-2.263306,1.131622l0.808289,2.74823l0.161682,1.131622l2.74823,0.323318l0.969971,2.586578l3.556519,2.424911l2.424927,1.616608l0,0.808304l-2.983215,2.696564l-1.616577,2.263245l-1.454956,2.74823l-2.263245,1.293289l-0.462463,1.602478l-0.242493,1.212448l-0.609253,2.60675l1.092285,2.244186l3.233215,2.909897l4.849792,2.263245l4.041504,0.646637l0.161682,1.454941l-0.808289,0.969955l0.323303,2.74823l0.808289,0l2.101624,-2.424896l0.808289,-4.849823l2.74823,-4.041504l3.071533,-6.466415l1.131653,-5.49646l-0.646667,-1.131622l-0.161682,-9.376312l-1.616577,-3.394867l-1.131653,0.808304l-2.74823,0.323318l-0.484985,-0.48497l1.131653,-0.969971l2.101563,-1.939926l0.06311,-1.093826l-0.384399,-3.433838l0.573364,-2.748245l-0.117432,-1.969009l-2.807556,-1.750351l-5.092163,-1.175766l-4.13739,-1.381622l-3.585632,-1.645691l-0.000061,0z"/>
  <path class="state" id="DE" d="m825.626099,228.279099l0.368286,-2.146896l0.375122,-1.69104l-1.623047,0.397751l-1.615417,0.46756l-2.206299,1.764313l1.720154,5.042877l2.263245,5.658112l2.101563,9.699661l1.616638,6.304779l5.011475,-0.161667l6.142151,-1.180679l-2.264282,-7.386276l-0.969971,0.484985l-3.556519,-2.424896l-1.778259,-4.688156l-1.939941,-3.556534l-3.147095,-2.870316l-0.864136,-2.098114l0.366333,-1.615463z"/>
  <path class="state" id="MD" d="m839.791748,252.414764l-6.008545,1.203842l-5.142883,0.117462l-1.843567,-6.922333l-1.924805,-9.169327l-2.572632,-6.188446l-1.288391,-4.398331l-7.506042,1.62236l-14.87616,2.823318l-37.451477,7.550903l1.131348,5.011658l0.96991,5.658112l0.323364,-0.323318l2.101563,-2.424896l2.263245,-2.617661l2.424927,-0.61557l1.454956,-1.454941l1.778259,-2.586578l1.293274,0.646652l2.909912,-0.323334l2.586548,-2.101578l2.006897,-1.453262l1.845215,-0.484985l1.644348,1.129959l2.909912,1.454941l1.939941,1.778259l1.212463,1.535782l4.122314,1.697433l0,2.909882l5.49646,1.293289l1.14447,0.541992l1.411865,-2.02832l2.882019,1.970154l-1.278198,2.481934l-0.765259,3.985657l-1.778259,2.586578l0,2.101593l0.646606,1.778259l5.063965,1.355682l4.311096,-0.061707l3.071533,0.969971l2.101624,0.323334l0.969971,-2.101593l-1.454956,-2.101563l0,-1.77829l-2.424927,-2.101578l-2.101563,-5.49646l1.293274,-5.334793l-0.161682,-2.101578l-1.293274,-1.293289c0,0 1.454956,-1.616608 1.454956,-2.263245c0,-0.646652 0.484985,-2.101593 0.484985,-2.101593l1.939941,-1.293274l1.93988,-1.616608l0.484985,0.969955l-1.454956,1.616608l-1.293274,3.718185l0.323364,1.131622l1.778259,0.323318l0.484985,5.49646l-2.101624,0.969971l0.323364,3.556519l0.484924,-0.161652l1.131653,-1.939926l1.616577,1.778259l-1.616577,1.293289l-0.323303,3.394882l2.586548,3.394867l3.879822,0.484985l1.616638,-0.808319l3.236572,4.182953l1.358337,0.536285l6.653687,-2.796936l2.007568,-4.023895l-0.435974,-4.907974l0,-0.000015zm-15.969604,9.028717l1.131653,2.505737l0.161682,1.77829l1.131592,1.8591c0,0 0.88916,-0.88913 0.88916,-1.212463c0,-0.323334 -0.727478,-3.071564 -0.727478,-3.071564l-0.727478,-2.344086l-1.859131,0.484985z"/>
  <path class="state" id="VA" d="m831.638855,266.068909l-0.143921,-1.947021l6.45343,-2.549896l-0.770386,3.217834l-2.919983,3.779114l-0.418091,4.585815l0.461792,3.390442l-1.828003,4.97818l-2.164246,1.916138l-1.470337,-4.640808l0.445862,-5.449127l1.587036,-4.183075l0.766846,-3.097595zm3.34021,28.301361l-58.174194,12.575439l-37.427002,5.279053l-6.678284,-0.375183l-2.585266,1.926392l-7.339111,0.220673l-8.382141,0.977692l-10.914978,1.614624l10.469482,-5.611206l-0.013123,-2.074921l1.52002,-2.146149l10.553833,-11.501434l3.946716,4.477478l3.782959,0.963959l2.543518,-1.14032l2.237183,-1.311157l2.536621,1.343536l3.914185,-1.427765l1.876709,-4.556335l2.600952,0.540009l2.855225,-2.131256l1.799255,0.493622l2.827209,-3.676575l0.348267,-2.08313l-0.963684,-1.275543l1.002808,-1.866638l5.274231,-12.277161l0.61676,-5.735077l1.228882,-0.523529l2.178528,2.442871l3.935913,-0.301178l1.929199,-7.573639l2.794006,-0.560852l1.049744,-2.741058l2.579773,-2.346893l2.771851,-5.69519l0.0849,-5.067551l9.821533,3.822815c0.680847,0.340424 0.832886,-5.049149 0.832886,-5.049149l3.652527,1.598343l0.068298,2.938156l5.784241,1.299484l2.132996,1.176208l1.659912,2.055679l-0.654541,3.648682l-1.947449,2.590973l0.109802,2.059082l0.588989,1.852905l4.97876,1.268433l4.451233,0.039886l3.068848,0.958649l1.943542,0.309296l0.714783,3.08847l3.19043,0.402527l0.868103,1.200012l-0.439514,4.690094l1.374756,1.102539l-0.478943,1.930389l1.22937,0.789764l-0.221802,1.384613l-2.69397,-0.09491l0.088989,1.615509l2.281006,1.542877l0.121521,1.411896l1.773132,1.7854l0.49176,2.524109l-2.55304,1.381317l1.572266,1.494293l5.800964,-1.685822l3.607666,6.011932l0,-0.000061z"/>
  <path class="state" id="WV" d="m761.185486,238.967316l1.112,4.944534l1.083435,6.031326l2.13031,-2.580338l2.263245,-3.071564l2.538391,-0.615555l1.454956,-1.454941l1.778259,-2.586563l1.444946,0.646637l2.909912,-0.323318l2.586548,-2.101593l2.006897,-1.453262l1.845276,-0.484985l1.303894,1.016479l3.64325,1.821625l1.939941,1.778275l1.374084,1.293274l-0.761719,5.554932l-5.8349,-2.541214l-4.245239,-1.622025l-0.101135,5.178436l-2.74762,5.536728l-2.530029,2.426666l-1.192139,2.74939l-2.643555,0.500092l-0.897827,3.601898l-1.043213,3.949646l-3.968262,0.340759l-2.32373,-2.438904l-1.071167,0.559418l-0.63269,5.469696l-1.350281,3.534515l-4.958374,10.954956l0.896667,1.160706l-0.205872,1.908539l-2.808655,3.88446l-1.808533,-0.544281l-2.968018,2.15976l-2.542419,-0.572235l-1.999207,4.555573c0,0 -3.259338,1.430237 -3.922913,1.367737c-0.160522,-0.015106 -2.469116,-1.249115 -2.469116,-1.249115l-2.336487,1.379364l-2.40979,1.044403l-3.74469,-0.889099l-1.121399,-1.168304l-2.192261,-3.023346l-3.142578,-1.988129l-1.711548,-3.62323l-4.284912,-3.468201l-0.646606,-2.263245l-2.586609,-1.454956l-0.808289,-1.616577l-0.242493,-5.253998l2.182434,-0.080811l1.939941,-0.808289l0.161621,-2.74823l1.616638,-1.454956l0.161621,-5.011475l0.969971,-3.879852l1.293274,-0.646637l1.293274,1.131622l0.485046,1.778259l1.778259,-0.969971l0.484985,-1.616608l-1.131653,-1.778259l0,-2.424896l0.969971,-1.293304l2.263245,-3.394867l1.293274,-1.454941l2.101624,0.484985l2.263245,-1.616623l3.071533,-3.394867l2.263245,-3.879868l0.323303,-5.658112l0.484985,-5.01149l0,-4.688156l-1.131592,-3.071548l0.969971,-1.454956l1.283447,-1.293289l3.491272,19.827118l4.630981,-0.751144l12.428345,-1.799652l0,-0.000031z"/>
  <path class="state" id="OH" d="m735.324951,193.328323l-6.093567,4.053345l-3.879822,2.26326l-3.394897,3.718185l-4.041504,3.879852l-3.233215,0.808304l-2.909851,0.48497l-5.49646,2.586578l-2.101624,0.161652l-3.394836,-3.071548l-5.173157,0.646652l-2.586548,-1.454956l-2.381042,-1.35083l-4.892578,0.703415l-10.184631,1.616608l-11.206848,2.184738l1.293274,14.63028l1.778259,13.741165l2.586548,23.440796l0.565857,4.831177l4.122314,-0.129028l2.424927,-0.808319l3.36377,1.503143l2.070496,4.364838l5.138977,-0.01709l1.891724,2.118683l1.761169,-0.065277l2.538391,-1.341461l2.50415,0.37149l5.421265,0.482666l1.72699,-2.13266l2.345642,-1.293274l2.070496,-0.680878l0.646667,2.74826l1.778259,0.96994l3.475708,2.344086l2.182434,-0.080811l1.333069,-0.492462l0.184753,-2.761536l1.585327,-1.454956l0.099243,-4.792725c0,0 1.023926,-4.10907 1.023926,-4.10907l1.299255,-0.601288l1.32135,1.147766l0.538147,1.697021l1.719177,-1.037445l0.438965,-1.460724l-1.116699,-1.903076l0.066284,-2.314423l0.749023,-1.072327l2.152771,-3.306473l1.050232,-1.543335l2.101563,0.484985l2.263245,-1.616608l3.071533,-3.394882l2.771484,-4.07872l0.320374,-5.055511l0.484985,-5.01149l-0.176819,-5.306885l-0.954834,-2.894775l0.351257,-1.189789l1.804382,-1.750107l-2.288818,-9.047333l-2.909851,-19.361771l-0.000061,-0.000015z"/>
  <path class="state" id="IN" d="m619.569519,299.971313l0.065308,-2.858582l0.484985,-4.52652l2.263245,-2.909882l1.778259,-3.879852l2.586548,-4.203186l-0.484924,-5.819763l-1.77832,-2.74823l-0.323303,-3.233215l0.808289,-5.49649l-0.484985,-6.951385l-1.293274,-16.004425l-1.293274,-15.357758l-0.970459,-11.720016l3.071045,0.889511l1.454956,0.969955l1.131592,-0.323318l2.101624,-1.939926l2.82959,-1.616989l5.092773,-0.162033l21.98584,-2.26326l5.575745,-0.533157l1.503174,15.956207l4.251343,36.841537l0.59845,5.771606l-0.371521,2.263245l1.228027,1.79538l0.096375,1.372559l-2.521301,1.599487l-3.539429,1.551331l-3.202148,0.550262l-0.59845,4.866943l-4.574646,3.312469l-2.796448,4.010437l0.323303,2.37674l-0.581299,1.53418l-3.326477,0l-1.585571,-1.616608l-2.493286,1.262207l-2.682983,1.503143l0.161682,3.054443l-1.193787,0.258057l-0.467896,-1.018158l-2.16687,-1.503143l-3.250305,1.341492l-1.551331,3.006256l-1.437805,-0.808319l-1.454956,-1.599518l-4.464355,0.485016l-5.592834,0.96994l-2.909912,1.551331z"/>
  <path class="state" id="IL" d="m619.541443,300.342438l0.031189,-3.229706l0.567383,-4.645966l2.33252,-2.915863l1.866699,-4.075745l2.232971,-3.995331l-0.37146,-5.252411l-2.005249,-3.542572l-0.096375,-3.34668l0.694824,-5.269501l-0.825378,-7.178375l-1.066345,-15.777451l-1.293274,-15.017334l-0.922302,-11.639206l-0.272522,-0.921387l-0.808289,-2.586578l-1.293274,-3.718185l-1.616638,-1.778275l-1.454895,-2.586548l-0.233582,-5.488968l-45.796448,2.598251l0.228638,2.371948l2.286194,0.685867l0.91449,1.143112l0.457275,1.828979l3.886597,3.429337l0.685852,2.28624l-0.685852,3.429337l-1.828979,3.657959l-0.685913,2.514847l-2.286194,1.828979l-1.828979,0.685867l-5.258301,1.371735l-0.685913,1.828979l-0.685852,2.057617l0.685852,1.371735l1.828979,1.600357l-0.228577,4.115204l-1.829041,1.600357l-0.685852,1.600357l0,2.743469l-1.828979,0.457245l-1.600342,1.143127l-0.228638,1.371735l0.228638,2.057602l-1.714661,1.31456l-1.028809,2.800644l0.457214,3.657959l2.286255,7.315933l7.315918,7.544556l5.486938,3.657959l-0.228638,4.343811l0.91449,1.371735l6.401428,0.457245l2.743469,1.371735l-0.685852,3.657959l-2.286194,5.944214l-0.685913,3.200714l2.286255,3.886566l6.401428,5.258331l4.572449,0.685852l2.057617,5.029724l2.057617,3.200714l-0.91449,2.972076l1.600342,4.115204l1.828979,2.057617l1.414001,-0.880676l0.907715,-2.074799l2.213074,-1.747192l2.13147,-0.61441l2.602539,1.17981l3.626953,1.375702l1.188965,-0.298248l0.19989,-2.258453l-1.287354,-2.411774l0.30426,-2.37674l1.838379,-1.347443l3.022522,-0.810272l1.260925,-0.458527l-0.61261,-1.386902l-0.791382,-2.35437l1.432617,-0.980957l1.157471,-3.21402l0.000061,0z"/>
  <path class="state" id="CT" d="m874.068298,178.862885l-3.677429,-14.878815l-4.718811,0.920319l-21.22876,4.743088l1.000183,3.225662l1.454956,7.27475l0.176758,8.966919l-1.220032,2.174866l1.920776,1.932343l4.271545,-3.90564l3.556519,-3.233215l1.939941,-2.101593l0.808289,0.646652l2.74823,-1.454941l5.173157,-1.131622l7.794678,-3.178772z"/>
  <path class="state" id="WI" d="m615.065918,197.368668l-0.066711,-3.157425l-1.179077,-4.526489l-0.646667,-6.143097l-1.131592,-2.424911l0.96991,-3.071548l0.80835,-2.909882l1.454956,-2.586563l-0.646667,-3.394867l-0.646667,-3.556534l0.484985,-1.778275l1.939941,-2.424911l0.161682,-2.74823l-0.80835,-1.293274l0.646667,-2.586578l-0.452515,-4.1707l2.74823,-5.658112l2.909912,-6.789749l0.161621,-2.263245l-0.323303,-0.969955l-0.808289,0.48497l-4.203186,6.304764l-2.74823,4.041504l-1.939941,1.778275l-0.808289,2.263245l-1.954956,0.808304l-1.131592,1.939926l-1.454956,-0.323318l-0.161682,-1.778275l1.293274,-2.424896l2.101624,-4.688156l1.778259,-1.616608l0.990845,-2.357849l-2.560486,-1.901337l-1.974792,-10.366997l-3.547485,-1.34198l-1.946289,-2.308327l-12.1297,-2.721642l-2.875854,-1.012047l-8.213135,-2.16729l-7.917908,-1.158752l-3.765198,-5.130669l-0.750366,0.554008l-1.197937,-0.161659l-0.646606,-1.131622l-1.334045,0.296555l-1.131653,0.161659l-1.778259,0.969955l-0.969971,-0.646637l0.646667,-1.939926l1.939941,-3.071556l1.131592,-1.131615l-1.93988,-1.454941l-2.101624,0.808296l-2.909851,1.939919l-7.436401,3.233215l-2.909912,0.646637l-2.909851,-0.484978l-0.98175,-0.87825l-2.116699,2.835182l-0.228638,2.743469l0,8.45903l-1.143066,1.600365l-5.258362,3.886566l-2.286194,5.944199l0.457214,0.228622l2.514893,2.057602l0.685852,3.200729l-1.828979,3.200699l0,3.886597l0.457214,6.630051l2.972107,2.972092l3.429321,0l1.828979,3.200729l3.429382,0.457245l3.886536,5.715561l7.087341,4.115219l2.057556,2.743469l0.914551,7.430237l0.685852,3.315018l2.286194,1.600357l0.228638,1.37175l-2.057617,3.429321l0.228638,3.200729l2.514832,3.886581l2.514893,1.143112l2.972046,0.457245l1.342346,1.380112l45.298401,-2.669449l-0.000061,0z"/>
  <path class="state" id="NC" d="m834.981506,294.315552l2.085022,4.917358l3.556519,6.4664l2.424866,2.424927l0.646667,2.263245l-2.424927,0.161652l0.80835,0.646637l-0.323364,4.203186l-2.586548,1.293274l-0.646667,2.101593l-1.293274,2.909882l-3.718201,1.616608l-2.424866,-0.323334l-1.454956,-0.161652l-1.616638,-1.293274l0.323364,1.293274l0,0.969971l1.939941,0l0.808289,1.293274l-1.939941,6.304779l4.203186,0l0.646606,1.616577l2.263245,-2.263214l1.293335,-0.485016l-1.939941,3.556549l-3.071594,4.849823l-1.293274,0l-1.131592,-0.484985l-2.74823,0.646637l-5.173157,2.424896l-6.466431,5.334808l-3.394836,4.688141l-1.939941,6.466431l-0.484985,2.424896l-4.688171,0.484985l-5.453125,1.33667l-9.946411,-8.202545l-12.609497,-7.598053l-2.909912,-0.808289l-12.609558,1.454926l-4.276428,0.750153l-1.616577,-3.233215l-2.970398,-2.116699l-16.48938,0.484985l-7.274719,0.808289l-9.052979,4.52652l-6.143127,2.586548l-21.177551,2.586609l0.500061,-4.054352l1.778259,-1.454926l2.748291,-0.646667l0.646606,-3.718201l4.203186,-2.748199l3.879883,-1.454956l4.203186,-3.556549l4.364807,-2.101593l0.646667,-3.071564l3.879822,-3.879852l0.646667,-0.161652c0,0 0,1.131622 0.808289,1.131622c0.808289,0 1.939941,0.323334 1.939941,0.323334l2.263245,-3.556549l2.101563,-0.646637l2.263245,0.323334l1.616638,-3.556549l2.909912,-2.586578l0.484985,-2.101593l0.1875,-3.648163l4.276489,-0.022522l7.198547,-0.855774l15.757263,-2.252441l15.136047,-2.086578l21.640442,-4.71933l19.983337,-4.258575l11.176941,-2.405823l5.049988,-1.15686l0,-0.000031zm4.270447,33.206573l2.586609,-2.505768l3.152344,-2.586578l1.535828,-0.646637l0.161621,-2.020752l-0.646606,-6.143127l-1.454956,-2.344086l-0.646667,-1.85907l0.727478,-0.242523l2.74823,5.49649l0.404175,4.445679l-0.161682,3.394867l-3.394897,1.535797l-2.829041,2.424896l-1.131592,1.212463l-1.050842,-0.161652z"/>
  <path class="state" id="DC" d="m805.819458,250.843842l-1.858276,-1.824173l-1.232605,-0.686279l1.442993,-2.022476l2.889099,1.948502l-1.241211,2.584427z"/>
  <path class="state" id="MA" d="m899.623474,173.253937l2.171936,-0.685883l0.457214,-1.714661l1.028809,0.114304l1.028809,2.28624l-1.257385,0.457245l-3.886597,0.114319l0.457214,-0.571564zm-9.373535,0.800186l2.286194,-2.629181l1.600403,0l1.828979,1.486053l-2.400513,1.028809l-2.171936,1.028793l-1.143127,-0.914474zm-34.799133,-21.98819l17.646851,-4.640686l2.263306,-0.646637l1.914063,-2.795715l3.736755,-1.663315l2.889221,4.412842l-2.424866,5.173141l-0.323364,1.454941l1.939941,2.586578l1.131653,-0.808304l1.778259,0l2.263245,2.586563l3.879822,5.98143l3.55658,0.484985l2.263184,-0.969955l1.77832,-1.778275l-0.80835,-2.748215l-2.101563,-1.616623l-1.454956,0.808304l-0.969971,-1.293274l0.484985,-0.484985l2.101624,-0.161652l1.778259,0.808289l1.93988,2.424911l0.969971,2.909897l0.323364,2.424896l-4.203186,1.454956l-3.879883,1.939911l-3.879822,4.526505l-1.939941,1.454941l0,-0.969955l2.424927,-1.454956l0.484985,-1.778259l-0.808289,-3.071548l-2.909912,1.454941l-0.808289,1.454941l0.484985,2.263245l-2.066345,1.000427l-2.747192,-4.52713l-3.394897,-4.364838l-2.070496,-1.812469l-6.533264,1.876205l-5.092346,1.050781l-20.675171,4.592209l-0.667725,-4.767838l0.646606,-10.588776l4.289307,-0.889145l6.789734,-1.293289z"/>
  <path class="state" id="TN" d="m696.677856,318.25412l-51.893066,5.011505l-15.759583,1.778259l-4.621216,0.512695l-3.868347,-0.02771l-0.220947,4.10083l-8.185364,0.264008l-6.951416,0.646667l-8.09082,-0.123871l-1.413818,7.072845l-1.696228,5.480072l-3.293152,2.750824l-1.348755,4.381073l-0.323303,2.586548l-4.041504,2.263245l1.454895,3.556549l-0.969971,4.364838l-0.968323,0.789642l108.158508,-10.407532l0.403259,-3.954956l1.81073,-1.490387l2.834167,-0.749451l0.671936,-3.71698l4.098572,-2.704956l4.046936,-1.494019l4.083618,-3.570343l4.436096,-2.025452l0.52124,-3.067352l4.064575,-3.984985l0.550842,-0.114166c0,0 0.031189,1.131622 0.839539,1.131622c0.808289,0 1.939941,0.354553 1.939941,0.354553l2.263245,-3.587799l2.070313,-0.646637l2.275146,0.295227l1.598267,-3.532867l2.955261,-2.643921l0.421692,-1.939087l0.30896,-3.711151l-2.146545,-0.199768l-2.601685,2.02832l-6.993347,0.029083l-18.359253,2.386841l-8.061096,1.908203l0,-0.000061z"/>
  <path class="state" id="AR" d="m593.824768,343.052948l-3.979858,0.716705l-5.112183,-0.634033l0.420715,-1.602081l2.979736,-2.566681l0.943359,-3.65625l-1.828979,-2.972107l-78.417542,2.514862l1.600372,6.858673l-0.000031,8.230438l1.371765,10.973969l0.228638,37.836945l2.286194,1.943298l2.972107,-1.371735l2.743469,1.143097l0.680359,6.573303l55.621277,-1.140594l1.14563,-2.090363l-0.286621,-3.54953l-1.825684,-2.972076l1.598694,-1.485229l-1.598694,-2.511505l0.684204,-2.509827l1.368408,-5.605408l2.518188,-2.062653l-0.685852,-2.284546l3.657959,-5.371796l2.743469,-1.368378l-0.113464,-1.493591l-0.345459,-1.825623l2.856934,-5.598755l2.403076,-1.256592l0.384094,-3.427612l1.770691,-1.241699l-3.143555,-0.484283l-1.341431,-4.010437l2.804077,-2.376709l0.550293,-2.019196l1.27948,-4.0466l1.066162,-3.255402z"/>
  <path class="state" id="MO" d="m558.440247,248.113159l-2.519897,-3.08725l-1.143066,-2.286224l-64.357269,2.400528l-2.286255,0.114319l1.257446,2.514847l-0.228638,2.286224l2.514862,3.886581l3.086395,4.115219l3.086395,2.743469l2.161224,0.228607l1.496735,0.91452l0,2.972076l-1.828949,1.600372l-0.457275,2.286224l2.057617,3.429321l2.514862,2.972107l2.514832,1.828979l1.371735,11.65976l0.314148,36.072205l0.228607,4.686737l0.457245,5.383514l22.433014,-0.866821l23.205994,-0.685883l20.804688,-0.800995l11.654724,-0.230286l2.169373,3.425995l-0.684143,3.307495l-3.08728,2.403046l-0.572388,1.837341l5.378479,0.457245l3.894958,-0.685883l1.717224,-5.493622l0.651367,-5.856781l2.098083,-2.555176l2.596008,-1.486877l0.051392,-3.050262l1.016052,-1.936462l-1.694275,-2.543762l-1.330933,0.984253l-1.992615,-2.227234l-1.285034,-4.759003l0.801025,-2.518219l-1.944153,-3.427643l-1.830627,-4.575806l-4.799377,-0.799347l-6.968811,-5.598755l-1.718872,-4.113525l0.799377,-3.200714l2.059265,-6.057678l0.458923,-2.863617l-1.949158,-1.031311l-6.855347,-0.797668l-1.027954,-1.712158l-0.111816,-4.230377l-5.486938,-3.431l-6.975525,-7.771484l-2.286194,-7.315948l-0.230286,-4.225311l0.800964,-2.287903l0.000061,0z"/>
  <path class="state" id="GA" d="m672.292297,355.551788l0,2.182434l0.161682,2.101593l0.646606,3.394867l3.394897,7.921356l2.424927,9.861328l1.454895,6.143097l1.616638,4.849823l1.454956,6.951416l2.101563,6.304749l2.586609,3.394897l0.484985,3.394867l1.93988,0.808289l0.161682,2.101593l-1.778259,4.849823l-0.484985,3.233215l-0.161682,1.939941l1.616638,4.364838l0.323303,5.334808l-0.808289,2.424896l0.646606,0.808319l1.454956,0.808289l0.204712,3.218079l2.233032,3.349548l2.250427,2.162048l7.921387,0.161652l10.819763,-0.646637l21.51239,-1.293274l5.445679,-0.674377l4.577271,0.02771l0.161682,2.909882l2.586548,0.808289l0.323303,-4.364838l-1.616577,-4.526489l1.131592,-1.616608l5.819824,0.808319l4.977417,0.31778l-0.775452,-6.298798l2.263245,-10.022949l1.454956,-4.203186l-0.484985,-2.586548l3.334412,-6.244324l-0.510315,-1.351654l-1.913391,0.704559l-2.586609,-1.293304l-0.646606,-2.101593l-1.293274,-3.556519l-2.263306,-2.101593l-2.586548,-0.646637l-1.616577,-4.849823l-2.925049,-6.334991l-4.203125,-1.939941l-2.101624,-1.939911l-1.293274,-2.586578l-2.101624,-1.939941l-2.263245,-1.293274l-2.263245,-2.909882l-3.071533,-2.263245l-4.526489,-1.77829l-0.484985,-1.454926l-2.424927,-2.909912l-0.484985,-1.454956l-3.394897,-4.970459l-3.519836,0.099182l-3.754944,-2.35614l-1.418274,-1.293274l-0.323303,-1.778259l0.870789,-1.939911l2.226624,-1.110168l-0.633911,-2.097198l-41.869751,4.988922z"/>
  <path class="state" id="SC" d="m764.943298,408.164886l-1.777039,0.969513l-2.586609,-1.293304l-0.646606,-2.101593l-1.293274,-3.556519l-2.263306,-2.101593l-2.586548,-0.646667l-1.616577,-4.849792l-2.748291,-5.981445l-4.203125,-1.939941l-2.101624,-1.939941l-1.293274,-2.586548l-2.101563,-1.939941l-2.263245,-1.293274l-2.263306,-2.909912l-3.071533,-2.263245l-4.526489,-1.778259l-0.484985,-1.454956l-2.424927,-2.909882l-0.484985,-1.454956l-3.394836,-5.173126l-3.394897,0.161652l-4.041504,-2.424927l-1.293274,-1.293274l-0.323364,-1.778259l0.80835,-1.939941l2.263245,-0.969971l-0.510864,-2.289063l5.768127,-2.336578l9.115479,-4.58902l7.774719,-0.808289l16.114441,-0.422485l2.638245,1.877441l1.679077,3.358215l4.302368,-0.609985l12.609497,-1.454956l2.909912,0.808289l12.609558,7.598083l10.108093,8.121674l-5.421204,5.458344l-2.586548,6.143097l-0.484985,6.304749l-1.616577,0.808319l-1.131653,2.74823l-2.424927,0.646637l-2.101563,3.556519l-2.74823,2.74823l-2.263245,3.394867l-1.616638,0.808319l-3.556519,3.394867l-2.909851,0.161652l0.969971,3.233215l-5.011536,5.49646l-2.101563,1.293274z"/>
  <path class="state" id="KY" d="m725.994385,295.270691l-2.293335,2.401672l-3.578186,3.994049l-4.924561,5.464661l-1.215759,1.71579l-0.0625,2.101563l-4.379822,2.164093l-5.658142,3.394897l-7.231873,1.798828l-51.86792,4.898865l-15.759521,1.778259l-4.621216,0.512726l-3.868347,-0.02771l-0.226929,4.220276l-8.179443,0.144562l-6.951416,0.646637l-7.987488,-0.060211l1.207825,-1.320068l2.499512,-1.540863l0.228638,-3.200714l0.91449,-1.828979l-1.606812,-2.53891l0.801819,-1.906799l2.263245,-1.778259l2.101624,-0.646667l2.74823,1.293304l3.556519,1.293274l1.131653,-0.323303l0.161621,-2.263275l-1.293274,-2.424896l0.323303,-2.263245l1.939941,-1.454956l2.586609,-0.646637l1.616577,-0.646637l-0.808289,-1.778259l-0.646667,-1.939941l1.506653,-0.995789c0.002991,-0.037109 1.253967,-3.522308 1.238281,-3.657837l3.053223,-1.478668l5.319763,-0.969971l4.49408,-0.484955l1.392395,1.627411l1.52832,0.870819l1.590759,-3.108215l3.187073,-1.282623l2.205078,1.484039l0.410583,0.999023l1.173523,-0.264008l-0.161682,-2.952942l3.130859,-1.749176l2.148071,-1.073486l1.529358,1.660828l3.318176,-0.04422l0.587341,-1.571259l-0.367554,-2.263214l2.600525,-3.998505l4.77655,-3.437897l0.705994,-4.835876l2.924988,-0.455902l3.791504,-1.645691l2.443298,-1.708221l-0.198364,-1.564941l-1.142395,-1.454926l0.565796,-2.994934l4.184875,-0.117493l2.299866,-0.745789l3.347412,1.429108l2.054077,4.364838l5.132324,0.010773l2.051025,2.208191l1.615417,-0.147675l2.601685,-1.278168l5.237061,0.573364l2.574951,0.217499l1.687561,-2.056244l2.617981,-1.425873l1.881775,-0.707092l0.646606,2.836609l2.043457,1.05835l2.642761,2.082489l0.117432,5.673248l0.80835,1.572418l2.589722,1.556274l0.771606,2.294495l4.159912,3.436951l1.805298,3.62323l2.456543,1.658539l0,-0.000031z"/>
  <path class="state" id="AL" d="m631.306458,460.41571l-1.490601,-14.321503l-2.74823,-18.752625l0.161621,-14.064514l0.80835,-31.038849l-0.161682,-16.651062l0.1651,-6.419037l44.484497,-3.619476l-0.147827,2.182434l0.161682,2.101593l0.646606,3.394867l3.394897,7.921387l2.424927,9.861298l1.454956,6.143127l1.616577,4.849823l1.454956,6.951385l2.101563,6.304779l2.586609,3.394867l0.484985,3.394867l1.939941,0.808319l0.161621,2.101593l-1.778259,4.849823l-0.484985,3.233215l-0.161682,1.939911l1.616638,4.364868l0.323303,5.334778l-0.808289,2.424927l0.646667,0.808289l1.454895,0.808319l0.328186,2.888794l-5.597656,-0.353546l-6.789795,0.646667l-25.542358,2.909882l-10.41156,1.406769l-0.221375,2.87738l1.778259,1.77829l2.586548,1.939911l0.580872,7.935425l-5.542053,2.572906l-2.74823,-0.323303l2.74823,-1.939941l0,-0.969971l-3.071533,-5.981415l-2.263245,-0.646637l-1.454956,4.364807l-1.293274,2.74823l-0.646667,-0.161652l-2.74823,0z"/>
  <path class="state" id="LA" d="m607.967041,459.161255l-3.284607,-3.166138l1.009888,-5.500244l-0.661316,-0.893066l-9.261658,1.006561l-25.02832,0.458923l-0.684204,-2.394684l0.912781,-8.455688l3.315918,-5.945862l5.031311,-8.69101l-0.574036,-2.398041l1.256592,-0.680847l0.458923,-1.952484l-2.286255,-2.055939l-0.111755,-1.942444l-1.830688,-4.34552l-0.147034,-6.338593l-55.473816,0.923981l0.028625,9.573578l0.685852,9.373505l0.685852,3.886597l2.514893,4.115204l0.91449,5.029724l4.343811,5.486908l0.228638,3.200714l0.685852,0.685883l-0.685852,8.459045l-2.972107,5.029694l1.600342,2.057617l-0.685852,2.514832l-0.685852,7.315918l-1.371765,3.200714l0.122498,3.616455l4.686462,-1.520142l12.113342,0.207001l10.346252,3.556519l6.466431,1.131653l3.718201,-1.454956l3.233215,1.131622l3.233215,0.969971l0.808289,-2.101593l-3.233215,-1.131622l-2.586548,0.484985l-2.74823,-1.616608c0,0 0.161621,-1.293304 0.808289,-1.454956c0.646667,-0.161652 3.071533,-0.969971 3.071533,-0.969971l1.778259,1.454956l1.778259,-0.969971l3.233215,0.646637l1.454956,2.424927l0.323303,2.263245l4.526489,0.323334l1.77832,1.778259l-0.80835,1.616608l-1.293274,0.808289l1.616638,1.616608l8.406311,3.556519l3.556519,-1.293274l0.969971,-2.424896l2.586609,-0.646667l1.778259,-1.454926l1.293274,0.969971l0.808289,2.909882l-2.263245,0.808289l0.646667,0.646637l3.394836,-1.293274l2.263245,-3.394867l0.808289,-0.484985l-2.101563,-0.323303l0.808289,-1.616608l-0.161621,-1.454956l2.101563,-0.484985l1.131592,-1.293274l0.646667,0.808289c0,0 -0.161682,3.071564 0.646667,3.071564c0.808289,0 4.203125,0.646637 4.203125,0.646637l4.041565,1.939911l0.96991,1.454956l2.909912,0l1.131653,0.969971l2.263245,-3.071564l0,-1.454926l-1.293335,0l-3.394836,-2.74823l-5.819763,-0.808319l-3.233215,-2.263245l1.131592,-2.74823l2.263245,0.323334l0.161682,-0.646637l-1.778259,-0.969971l0,-0.484985l3.233215,0l1.778259,-3.071533l-1.293274,-1.939941l-0.323364,-2.74823l-1.454895,0.161652l-1.939941,2.101593l-0.646667,2.586578l-3.071533,-0.646637l-0.969971,-1.778259l1.778259,-1.939941l1.90332,-3.445618l-1.061096,-2.412262l-1.165649,-3.981323z"/>
  <path class="state" id="MS" d="m631.558838,459.344574l-0.254272,1.256165l-5.173157,0l-1.454895,-0.808319l-2.101624,-0.323303l-6.789734,1.939911l-1.778259,-0.808289l-2.586548,4.203156l-1.102539,0.778015l-1.12384,-2.487976l-1.143127,-3.886597l-3.429321,-3.200714l1.143127,-5.544525l-0.685913,-0.91449l-1.828979,0.228607l-7.917908,0.873383l-24.546509,0.373352l-0.769714,-2.225342l0.873352,-8.376801l3.116821,-5.672821l5.227112,-9.144897l-0.44574,-2.432617l1.236877,-0.65625l0.435852,-1.919464l-2.317505,-2.078979l-0.115112,-2.141479l-1.835693,-4.121094l-0.109009,-5.962769l1.327515,-2.480957l-0.223328,-3.415741l-1.76947,-3.082611l1.526428,-1.482208l-1.570618,-2.499542l0.457275,-1.652191l1.577393,-6.526367l2.485962,-2.036377l-0.641663,-2.366943l3.657959,-5.302551l2.831848,-1.356415l-0.220947,-1.675171l-0.288147,-1.681091l2.876038,-5.567657l2.345703,-1.231506l0.151672,-0.893036l37.343445,-3.881165l0.184875,6.283325l0.161682,16.651062l-0.808289,31.038849l-0.161682,14.064514l2.74823,18.752625l1.484375,13.395294z"/>
  <path class="state" id="IA" d="m569.191528,199.584305l0.264404,2.786194l2.223694,0.577271l0.953918,1.225327l0.500061,1.855362l3.792786,3.358643l0.685913,2.39151l-0.674377,3.424469l-1.582275,3.231979l-0.799377,2.741791l-2.172729,1.602036l-1.715515,0.572403l-5.579041,1.860199l-1.391418,3.848694l0.728638,1.371735l1.840515,1.682587l-0.282959,4.036301l-1.763123,1.537857l-0.771423,1.643143l0.127197,2.776306l-1.886292,0.457245l-1.625427,1.104904l-0.278809,1.352631l0.278809,2.114929l-1.551025,1.116074l-2.47052,-3.133286l-1.262573,-2.449875l-65.73584,2.514847l-0.91803,0.165451l-2.052399,-4.515961l-0.228607,-6.630081l-1.600372,-4.115204l-0.685852,-5.258301l-2.286224,-3.657974l-0.91449,-4.801071l-2.743469,-7.544556l-1.143127,-5.372635l-1.371735,-2.171906l-1.600372,-2.743469l1.953979,-4.843826l1.371765,-5.715576l-2.7435,-2.057602l-0.457245,-2.743469l0.91452,-2.514847l1.714661,0l82.654022,-1.269485l0.834229,4.183121l2.252197,1.560974l0.256714,1.42308l-2.029541,3.389313l0.190369,3.205521l2.514893,3.798203l2.526794,1.293625l3.079285,0.503036l0.658325,0.832367z"/>
  <path class="state" id="MN" d="m475.237823,128.824387l-0.457245,-8.459038l-1.828979,-7.315926l-1.828979,-13.488724l-0.457245,-9.830772l-1.828979,-3.429344l-1.600372,-5.029694l0,-10.288025l0.685852,-3.886589l-1.820923,-5.451664l30.132416,0.035271l0.323334,-8.244682l0.646637,-0.161663l2.263245,0.484982l1.939911,0.808304l0.808319,5.496456l1.454926,6.143097l1.616608,1.616608l4.849823,0l0.323334,1.454941l6.304779,0.323318l0,2.101585l4.849792,0l0.323303,-1.293282l1.131653,-1.131622l2.263245,-0.646645l1.293274,0.969963l2.909851,0l3.879883,2.586571l5.334778,2.424904l2.424927,0.484985l0.484985,-0.969963l1.454956,-0.484985l0.484924,2.909889l2.586609,1.293289l0.484985,-0.484985l1.293274,0.161659l0,2.101585l2.586548,0.969963l3.071533,0l1.616638,-0.808304l3.233215,-3.233208l2.586548,-0.484978l0.808289,1.778267l0.484985,1.293282l0.969971,0l0.969971,-0.808304l8.891357,-0.323318l1.778259,3.071548l0.646606,0l0.713623,-1.084282l4.439941,-0.370667l-0.612122,2.279465l-3.938721,1.83712l-9.245789,4.061127l-4.774719,2.006897l-3.071594,2.586571l-2.424866,3.556534l-2.263245,3.879852l-1.778259,0.808304l-4.526489,5.011467l-1.293335,0.161659l-4.327759,2.757118l-2.462891,3.205109l-0.228577,3.191391l0.09436,8.04335l-1.376038,1.688751l-5.081543,3.759972l-2.230042,5.982407l2.871704,2.233719l0.679932,3.226974l-1.855286,3.238922l0.170837,3.748032l0.368835,6.730392l3.028259,3.001999l3.328979,0l1.891113,3.132599l3.37915,0.503265l3.859192,5.671463l7.08728,4.11676l2.143127,2.875122l0.671204,6.439499l-81.211517,1.144791l-0.337921,-35.676849l-0.457245,-2.972092l-4.115204,-3.429337l-1.143127,-1.828979l0,-1.600372l2.057587,-1.600342l1.371735,-1.37175l0.228638,-3.200714l-0.000031,0z"/>
  <path class="state" id="OK" d="m380.34314,320.821472l-16.684174,-1.273315l-0.880219,10.952423l20.465363,1.156891l32.055573,1.303589l-2.334625,24.418671l-0.457245,17.83255l0.228638,1.600372l4.343842,3.657959l2.057587,1.143097l0.685883,-0.228607l0.685852,-2.057617l1.371735,1.82901l2.057617,0l0,-1.371765l2.743469,1.371765l-0.457245,3.886566l4.115204,0.228607l2.514862,1.143127l4.115204,0.685883l2.514832,1.828979l2.286224,-2.057617l3.429352,0.685883l2.514862,3.429321l0.914459,0l0,2.286224l2.286255,0.685883l2.286194,-2.286224l1.82901,0.685852l2.514832,0l0.91449,2.514862l6.301086,2.078979l1.371735,-0.685883l1.828979,-4.115204l1.143097,0l1.143127,2.057617l4.115204,0.685852l3.657959,1.371735l2.972107,0.91449l1.828979,-0.91449l0.685883,-2.514832l4.343811,0l2.057617,0.91449l2.743469,-2.057617l1.143097,0l0.685883,1.600372l4.115204,0l1.600342,-2.057617l1.82901,0.457245l2.057587,2.514862l3.200714,1.828979l3.200745,0.91449l1.941071,1.118927l-0.389099,-37.21701l-1.371765,-10.973969l-0.160461,-8.872345l-1.43988,-6.53772l-0.778198,-7.179657l-0.068085,-3.816223l-12.136841,0.318756l-46.410065,-0.457245l-45.03891,-2.057617l-24.291199,-1.371735l-0.000031,0z"/>
  <path class="state" id="TX" d="m361.464233,330.573578l22.690796,1.085938l31.092682,1.143127l-2.334595,23.45578l-0.296783,18.153534l0.068115,2.081787l4.343811,3.81842l1.986664,1.447174l1.184204,-0.559692l0.373383,-1.817719l1.14032,1.803619l2.111633,0.043915l-0.002991,-1.447113l1.669922,0.967285l1.138702,0.408875l-0.359253,3.967651l4.088165,0.093475l2.925323,1.197174l3.954742,0.525391l2.381378,2.078979l2.124115,-2.076172l3.724945,0.614899l2.220886,3.224945l1.074982,0.320953l-0.160492,1.965271l2.213623,0.792297l2.330139,-2.05481l2.133026,0.614929l2.229401,0.035492l0.933044,2.435455l6.328094,2.114441l1.593048,-0.766937l1.489471,-4.177704l0.340729,0l0.906494,0.081604l1.229034,2.068634l3.929901,0.665283l3.336975,1.122864l3.425629,1.195984l1.840607,-0.975006l0.713745,-2.514832l4.453217,0.044189l1.808746,0.930786l2.799255,-2.106506l1.103638,0.044189l0.851044,1.605072l4.054718,0l1.51886,-2.028625l1.867371,0.407257l1.946045,2.40329l3.520569,2.044128l2.858765,0.809814l1.513611,0.799835l2.446686,1.997314l3.04303,-1.327789l2.691101,1.138885l0.563843,6.105957l-0.039795,9.702148l0.685852,9.534027l0.702148,3.605103l2.675354,4.419861l0.898193,4.950745l4.215942,5.537994l0.195984,3.144958l0.746399,0.785828l-0.730103,8.380066l-2.87207,5.0065l1.532959,2.152893l-0.630066,2.338074l-0.669556,7.404297l-1.504333,3.338013l0.294861,3.50235l-5.664856,1.585175l-9.861298,4.52652l-0.969971,1.939911l-2.586578,1.939941l-2.101563,1.454926l-1.293304,0.808289l-5.658112,5.334808l-2.74823,2.101593l-5.334778,3.233185l-5.658112,2.424927l-6.304779,3.394867l-1.778259,1.454956l-5.819763,3.556549l-3.394867,0.646606l-3.879852,5.49646l-4.041534,0.323303l-0.969971,1.939941l2.263275,1.939941l-1.454956,5.49646l-1.293274,4.526489l-1.131622,3.879822l-0.808319,4.526489l0.808319,2.424927l1.778259,6.951416l0.969971,6.143066l1.778259,2.74823l-0.969971,1.454956l-3.071533,1.939941l-5.658142,-3.879883l-5.496429,-1.131592l-1.293304,0.484985l-3.233215,-0.646667l-4.203156,-3.071533l-5.173126,-1.131653l-7.598053,-3.394836l-2.101593,-3.879883l-1.293274,-6.46637l-3.233215,-1.939941l-0.646637,-2.263245l0.646637,-0.646667l0.323334,-3.394836l-1.293304,-0.646667l-0.646637,-0.969971l1.293274,-4.364807l-1.616608,-2.263245l-3.233185,-1.293274l-3.394867,-4.364868l-3.556549,-6.628052l-4.203156,-2.586578l0.161652,-1.939941l-5.334808,-12.286194l-0.808289,-4.203156l-1.778259,-1.939941l-0.161652,-1.454926l-5.981445,-5.334808l-2.586578,-3.071533l0,-1.131653l-2.586578,-2.101563l-6.789734,-1.131622l-7.436371,-0.646667l-3.071564,-2.263214l-4.526489,1.778259l-3.556519,1.454926l-2.263245,3.233215l-0.969971,3.718201l-4.364838,6.143097l-2.424896,2.424896l-2.586578,-0.96994l-1.778259,-1.131653l-1.939941,-0.646637l-3.879852,-2.263245l0,-0.646637l-1.778259,-1.939911l-5.173126,-2.101593l-7.436371,-7.759705l-2.263245,-4.688141l0,-8.083038l-3.233215,-6.466431l-0.484985,-2.74823l-1.616608,-0.96994l-1.131622,-2.101593l-5.011475,-2.101593l-1.293274,-1.616608l-7.113068,-7.921356l-1.293274,-3.233215l-4.688171,-2.263245l-1.454956,-4.364868l-2.586578,-2.909882l-1.939911,-0.484955l-0.649231,-4.677643l8.001862,0.685883l29.035004,2.743469l29.035065,1.600342l2.233521,-19.461823l3.886566,-55.555023l1.600403,-18.747314l1.371735,0.028595m99.029327,229.66272l-0.565796,-7.113037l-2.74823,-7.193909l-0.565826,-7.032288l1.535767,-8.24469l3.314056,-6.870605l3.475708,-5.415649l3.152405,-3.556519l0.646637,0.242493l-4.768982,6.628113l-4.364868,6.547241l-2.020752,6.628113l-0.323334,5.173157l0.88913,6.143127l2.586578,7.193909l0.484985,5.173157l0.161652,1.454956l-0.88913,0.242432z"/>
  <path class="state" id="NM" d="m288.152557,424.013153l-0.775421,-4.748108l8.643799,0.525421l30.171753,2.945892l27.268158,1.68988l2.215271,-18.707458l3.857361,-55.875977l1.737671,-19.389221l1.571716,0.12854l0.825378,-11.163391l-104.004425,-10.635925l-17.49736,120.434784l15.460678,1.989166l1.293274,-10.022949l29.232147,2.829346z"/>
  <path class="state" id="KS" d="m507.880585,324.38028l-12.618256,0.204437l-46.089081,-0.457245l-44.557495,-2.057617l-24.62973,-1.257416l3.893768,-64.594971l22.083466,0.675171l40.289154,0.8414l44.301239,0.987579l5.095612,0l2.184418,2.162415l2.017639,-0.021423l1.64032,1.012482l-0.0625,3.009216l-1.828979,1.725372l-0.332275,2.232178l1.843079,3.402344l2.952362,3.195038l2.327362,1.614471l1.300781,11.240814l0.189117,36.085724l0,0.000031z"/>
  <path class="state" id="NE" d="m486.09787,240.700577l3.230621,7.019913l-0.128632,2.302521l3.459198,5.493881l2.719299,3.152328l-5.049469,0l-43.482574,-0.93866l-40.786865,-0.89032l-22.252197,-0.783875l1.072754,-21.327835l-32.318237,-2.920258l4.343842,-44.009857l15.546326,1.028809l20.118774,1.143097l17.832581,1.143127l23.776764,1.143112l10.745239,-0.457245l2.057617,2.286224l4.801086,2.972092l1.143097,0.91449l4.343842,-1.371735l3.886597,-0.457245l2.743469,-0.228622l1.828979,1.371735l4.057404,1.600357l2.972107,1.600357l0.457245,1.600372l0.91449,2.057602l1.828979,0l0.797974,0.046188l0.894226,4.681824l2.920288,8.467926l0.57251,3.756699l2.523499,3.774261l0.56958,5.114136l1.607239,4.240372l0.25235,6.474258l0,-0.000031z"/>
  <path class="state" id="SD" d="m476.446869,204.024643l-0.047394,-0.580872l-2.895721,-4.845444l1.860229,-4.712097l1.492737,-5.886551l-2.78186,-2.079712l-0.385162,-2.743454l0.792389,-2.554352l3.188507,0.015198l-0.123077,-5.006134l-0.333282,-30.174255l-0.617737,-3.767578l-4.072327,-3.330933l-0.982635,-1.676956l-0.0625,-1.608826l2.022125,-1.529388l1.532227,-1.66568l0.244965,-2.656784l-58.257111,-1.600349l-54.799194,-3.449089l-5.325287,63.691193l14.590271,0.903793l19.94986,1.205612l17.743042,0.928589l23.776764,1.303574l11.982697,-0.424637l1.966309,2.245178l5.194641,3.253357l0.763885,0.722748l4.541443,-1.452805l6.540527,-0.614914l1.675323,1.336273l4.204498,1.59613l2.945068,1.635818l0.398956,1.48381l1.03949,2.240891l2.237396,-0.20137l-0.000061,0.000015z"/>
  <path class="state" id="ND" d="m475.305267,128.918457l-0.614899,-8.43367l-1.676971,-6.815918l-1.891479,-13.024223l-0.457245,-10.987022l-1.739441,-3.077148l-1.756622,-5.194389l0.031189,-10.444275l0.623383,-3.824089l-1.834106,-5.467758l-28.642273,-0.564026l-18.590942,-0.646641l-26.512299,-1.293285l-22.94635,-2.133869l-6.993256,67.17683l54.932251,3.343651l58.069,1.385834l0.000061,0z"/>
  <path class="state" id="WY" d="m360.376678,143.275864l-106.742599,-13.457062l-14.083481,88.458038l113.264618,13.58548l7.561462,-88.586456z"/>
  <path class="state" id="MT" d="m369.209534,56.969131l-30.674347,-2.807831l-29.260559,-3.55653l-29.260529,-4.041512l-32.332108,-5.334797l-18.429291,-3.394867l-32.723648,-6.932737l-4.479019,21.347532l3.429337,7.54454l-1.371735,4.572449l1.828979,4.572456l3.200729,1.371735l4.620819,10.769455l2.695099,3.176521l0.457245,1.14312l3.429337,1.14312l0.457245,2.057594l-7.087296,17.603951l0,2.514847l2.514847,3.200714l0.91449,0l4.801071,-2.972092l0.685867,-1.14312l1.600372,0.685867l-0.228638,5.258324l2.743484,12.574249l2.972092,2.514839l0.914474,0.685867l1.828995,2.286224l-0.45726,3.429352l0.685883,3.429321l1.143112,0.914505l2.286224,-2.286224l2.743469,0l3.200714,1.600357l2.514862,-0.91449l4.115204,0l3.657944,1.600357l2.743484,-0.457245l0.457245,-2.972107l2.972092,-0.685852l1.371735,1.371735l0.457245,3.200714l1.425873,0.834641l1.886948,-11.034744l106.745667,13.428925l8.802216,-86.29916l0.000031,-0.000004z"/>
  <path class="state" id="CO" d="m380.03241,320.964569l4.903229,-86.324966l-113.38855,-12.643951l-12.213806,87.939163l120.699127,11.029755z"/>
  <path class="state" id="ID" d="m148.478806,176.483948l8.770874,-35.220718l1.371735,-4.229523l2.514847,-5.944183l-1.257431,-2.286224l-2.514847,0.114304l-0.800171,-1.028793l0.457245,-1.143112l0.342926,-3.086411l4.458145,-5.486946l1.828979,-0.457245l1.143112,-1.143105l0.571548,-3.200722l0.91449,-0.68586l3.886581,-5.82988l3.886597,-4.343834l0.228622,-3.772263l-3.429337,-2.629166l-1.535553,-4.400986l13.624908,-63.341686l13.517593,2.528111l-4.408081,21.383015l3.560349,7.485352l-1.581116,4.660839l1.969849,4.641235l3.138229,1.255188l3.835342,9.556587l3.51268,4.437157l0.507248,1.14312l3.340958,1.143112l0.368851,2.097076l-6.971008,17.376091l-0.165192,2.565933l2.631119,3.321701l0.90509,-0.048904l4.911285,-3.025597l0.677429,-1.094971l1.562302,0.658859l-0.278442,5.353722l2.739258,12.58271l3.917831,3.17791l1.681168,2.165451l-0.716599,4.083862l1.066208,2.807404l1.06163,1.091278l2.479294,-2.35141l2.84816,0.048889l2.91925,1.335205l2.780029,-0.681931l3.79425,-0.160477l3.978897,1.600357l2.743484,-0.296753l0.496735,-3.037323l2.932602,-0.764816l1.260162,1.5159l0.440933,2.944962l1.424347,1.213211l-8.386002,53.608658c0,0 -87.965988,-16.700607 -94.959396,-18.204346l0,-0.000015z"/>
  <path class="state" id="UT" d="m259.498352,310.105103l-83.749023,-11.872253l20.587601,-112.541351l46.780319,8.745148l-1.484802,10.630417l-2.31163,13.172653l7.807693,0.928375l16.406525,1.804794l8.210968,0.855637l-12.24765,88.276581z"/>
  <path class="state" id="AZ" d="m144.911194,382.629089l-2.627014,2.158325l-0.323318,1.454956l0.484985,0.969971l18.914261,10.669586l12.124542,7.598022l14.711105,8.568024l16.812683,10.022949l12.286209,2.424896l24.951157,2.704926l17.2556,-119.127075l-83.735611,-11.917236l-3.092392,16.412445l-1.606293,0.01532l-1.714676,2.62915l-2.514847,-0.114319l-1.257416,-2.743469l-2.743469,-0.342926l-0.914505,-1.143127l-0.914474,0l-0.914505,0.571564l-1.943283,1.028809l-0.114304,6.972961l-0.228638,1.714691l-0.571548,12.574219l-1.486038,2.171936l-0.571564,3.315002l2.743469,4.915405l1.257416,5.829865l0.800186,1.028809l1.028809,0.571564l-0.114319,2.286224l-1.600357,1.371735l-3.429337,1.714661l-1.943283,1.943298l-1.486053,3.657959l-0.571564,4.915375l-2.857773,2.743469l-2.057602,0.685883l0.135681,0.829865l-0.457245,1.714691l0.457245,0.800171l3.657959,0.571533l-0.571548,2.7435l-1.486053,2.171906l-3.772278,0.91449z"/>
  <path class="state" id="NV" d="m196.392731,185.575516l-23.638916,128.822769l-1.83223,0.349121l-1.572769,2.406189l-2.37294,0.010712l-1.471939,-2.743469l-2.618469,-0.378418l-0.770935,-1.107635l-1.037827,-0.054016l-2.778366,1.644287l-0.310257,6.785492l-0.362091,5.777161l-0.348572,8.592834l-1.447098,2.089142l-2.438919,-1.074036l-69.079887,-104.201172l18.989113,-67.584915l93.092102,20.666016l0,-0.000061z"/>
  <path class="state" id="OR" d="m148.721848,175.531525l8.849701,-34.801514l1.050781,-4.229523l2.354385,-5.62323l-0.615524,-1.162872l-2.514847,-0.046204l-1.281601,-1.6707l0.45723,-1.464066l0.503418,-3.24688l4.458145,-5.486954l1.828979,-1.099152l1.143112,-1.143105l1.486038,-3.565636l4.047058,-5.669395l3.565628,-3.862404l0.228622,-3.451309l-3.26886,-2.468681l-1.783401,-4.642632l-12.663773,-3.611969l-15.089096,-3.543648l-15.432014,0.114304l-0.457245,-1.371727l-5.486946,2.057602l-4.458145,-0.571556l-2.400536,-1.600365l-1.257423,0.685883l-4.68676,-0.228638l-1.714668,-1.371727l-5.258316,-2.057602l-0.800186,0.114311l-4.343826,-1.486053l-1.943291,1.828979l-6.172813,-0.342926l-5.944183,-4.115204l0.685867,-0.800186l0.228615,-7.77317l-2.286224,-3.886578l-4.115204,-0.571556l-0.685867,-2.514847l-2.353928,-0.466568l-5.798531,2.058784l-2.263245,6.466419l-3.233208,10.022949l-3.233212,6.466415l-5.011475,14.064461l-6.466419,13.579475l-8.083023,12.60952l-1.939926,2.909897l-0.808304,8.567993l0.386097,12.080231l112.578342,26.321335l0,0.000015z"/>
  <path class="state" id="WA" d="m102.073242,7.611773l4.36483,1.454945l9.699631,2.748228l8.568001,1.939925l20.045898,5.658117l22.955795,5.658115l15.223114,3.207172l-13.632355,63.585814l-12.445007,-3.525322l-15.508011,-3.570679l-15.229286,0.033241l-0.455574,-1.344696l-5.599213,2.179291l-4.595436,-0.736748l-2.146965,-1.584053l-1.31321,0.657982l-4.735664,-0.140244l-1.698357,-1.349632l-5.263039,-2.112305l-0.734978,0.146919l-4.389122,-1.524452l-1.893295,1.817383l-6.265907,-0.298737l-5.925697,-4.125702l0.778961,-0.932762l0.121223,-7.677452l-2.282005,-3.839699l-4.115204,-0.60704l-0.677414,-2.510616l-2.275513,-0.456932l-3.554947,1.230576l-2.263245,-3.21925l0.323318,-2.909889l2.74823,-0.323318l1.616608,-4.041512l-2.586571,-1.131622l0.161659,-3.718193l4.364838,-0.646641l-2.74823,-2.748226l-1.454948,-7.113064l0.646645,-2.909885l0,-7.921364l-1.778267,-3.233212l2.263245,-9.376306l2.101593,0.484982l2.424904,2.909889l2.74823,2.586566l3.233208,1.939926l4.526497,2.101587l3.071548,0.646641l2.909889,1.454945l3.394867,0.969963l2.263252,-0.161661l0,-2.424908l1.293282,-1.131622l2.101585,-1.293283l0.323326,1.131624l0.323318,1.778265l-2.263245,0.48498l-0.323326,2.101587l1.778267,1.454945l1.13163,2.424906l0.646637,1.939926l1.454941,-0.161661l0.161659,-1.293283l-0.969963,-1.293283l-0.484978,-3.23321l0.808304,-1.778265l-0.646645,-1.454943l0,-2.263248l1.778275,-3.55653l-1.13163,-2.586568l-2.424911,-4.849813l0.323326,-0.808302l1.131622,-0.808303l0,-0.000003zm-9.456696,5.978965l2.020767,-0.16166l0.484985,1.374119l1.535774,-1.616615l2.344086,0l0.808304,1.535779l-1.535782,1.697441l0.646652,0.808311l-0.727478,2.020761l-1.374115,0.404146c0,0 -0.889145,0.080841 -0.889145,-0.242485c0,-0.32332 1.454956,-2.586578 1.454956,-2.586578l-1.697441,-0.565817l-0.323318,1.454954l-0.727478,0.646643l-1.535782,-2.263258l-0.484978,-2.505741l-0.000008,0z"/>
  <path class="state" id="CA" d="m144.694427,382.19812l3.940079,-0.488617l1.486038,-2.011444l0.54454,-2.941101l-3.551514,-0.590118l-0.514175,-0.668213l0.477509,-2.032318l-0.159286,-0.589661l1.922562,-0.619598l3.042786,-2.832672l0.581558,-4.995087l1.379898,-3.40213l1.943298,-2.16626l3.51886,-1.589661l1.654404,-1.604828l0.068695,-2.108856l-0.993332,-0.579987l-1.023148,-1.072754l-1.155228,-5.84845l-2.685196,-4.830078l0.565811,-3.505005l-2.419586,-1.029297l-69.061317,-104.178406l18.902107,-67.601486l-67.079861,-15.697952l-1.506897,4.733231l-0.161659,7.436386l-5.173136,11.801208l-3.071548,2.586563l-0.32332,1.131622l-1.778267,0.808319l-1.454943,4.203171l-0.808304,3.2332l2.748228,4.203171l1.616606,4.203171l1.131622,3.556534l-0.32332,6.466415l-1.778265,3.071548l-0.646643,5.819778l-0.969963,3.718201l1.778265,3.879837l2.748228,4.526505l2.263248,4.849808l1.293282,4.041519l-0.323318,3.2332l-0.323322,0.484985l0,2.101578l5.658115,6.304764l-0.484982,2.424911l-0.646641,2.263245l-0.646641,1.939926l0.161659,8.24469l2.101585,3.718201l1.939926,2.586548l2.74823,0.484985l0.969963,2.74823l-1.131626,3.556519l-2.101585,1.616608l-1.131622,0l-0.808304,3.879852l0.484982,2.909882l3.233212,4.364838l1.616604,5.334808l1.454945,4.688141l1.293282,3.071564l3.394871,5.819763l1.454945,2.586578l0.484982,2.909882l1.616604,0.969971l0,2.424896l-0.8083,1.939941l-1.778267,7.113037l-0.484982,1.939941l2.424908,2.74823l4.203171,0.484985l4.526493,1.778259l3.879856,2.101563l2.909889,0l2.909882,3.071564l2.586571,4.849823l1.131622,2.263245l3.879852,2.101593l4.849815,0.808289l1.454941,2.101593l0.646645,3.233215l-1.454948,0.646637l0.323326,0.969971l3.233208,0.808289l2.74823,0.161682l3.159889,-1.686859l3.879852,4.203156l0.808304,2.263245l2.586571,4.203186l0.323318,3.233215l0,9.376312l0.484985,1.778259l10.022949,1.454956l19.722565,2.748199l13.845047,1.349701l0.000031,0zm-88.135216,-43.716675l1.293289,1.535767l-0.161659,1.293304l-3.233223,-0.080811l-0.565815,-1.212463l-0.646645,-1.454956l3.314053,-0.08078l0,-0.000061zm1.939934,0l1.212456,-0.646637l3.556545,2.101593l3.07156,1.212433l-0.889137,0.646667l-4.526508,-0.242493l-1.616611,-1.616608l-0.808304,-1.454956zm20.692612,19.803467l1.778267,2.344086l0.808311,0.969971l1.535782,0.565826l0.565804,-1.454956l-0.969963,-1.77829l-2.667404,-2.020752l-1.050797,0.161652l0,1.212463zm-1.454956,8.648865l1.778275,3.152405l1.212463,1.939941l-1.454956,0.242462l-1.293282,-1.212433c0,0 -0.727478,-1.454956 -0.727478,-1.859131c0,-0.404144 0,-2.182404 0,-2.182404l0.484978,-0.080811l0,-0.000031z"/>
  <!--<circle id="svg_1" r="1.984375" cy="280.970476" cx="460.669949" stroke-linecap="null" stroke-linejoin="null" stroke-dasharray="null" stroke-width="null" fill="#00ff00"/>-->
   <a xlink:href="http://www.google.com">
     <circle id="svg_1" r="5" cy="280.970476" cx="460.669949" stroke-linecap="null" stroke-linejoin="null" stroke-dasharray="null" stroke-width="null" fill="#00ff00"/>
   </a>
  <!--<circle id="svg_2" r="3.605551" cy="1191" cx="2059" stroke-linecap="null" stroke-linejoin="null" stroke-dasharray="null" stroke-width="null" fill="black"/>-->
  <!--<circle id="svg_3" r="1" cy="1193" cx="2053" stroke-linecap="null" stroke-linejoin="null" stroke-dasharray="null" stroke-width="null" fill="black"/>-->
 </g>
</svg>